<svg width="85" height="77" viewBox="0 0 85 77" fill="none" xmlns="http://www.w3.org/2000/svg">
<g opacity="0.26">
<path d="M55.4756 12.3506C55.4828 12.3632 55.4971 12.3893 55.5043 12.4019C58.3809 13.3949 61.2445 14.4182 64.0805 15.5002C58.9198 22.3194 53.777 29.1501 48.6677 35.9975C47.461 37.6152 46.2113 39.2068 45.0128 40.8276C41.9351 38.0883 38.7962 35.4032 35.6993 32.6826C34.8708 31.9867 34.0999 31.2333 33.2249 30.5846C30.8475 33.37 28.5106 36.1816 26.144 38.9734C23.5019 42.1188 20.9114 45.2956 18.2405 48.4222C15.3614 51.8626 12.4741 55.2958 9.58896 58.732C7.26778 61.5352 4.86276 64.2861 2.58472 67.1166C3.65732 66.3674 4.61145 65.4957 5.6517 64.711C12.1005 59.5 18.5673 54.3059 24.9887 49.0699C27.9168 46.7239 30.8282 44.3622 33.7241 41.9869C34.034 42.2339 34.2975 42.5196 34.5739 42.7938C37.4746 45.7487 40.417 48.6712 43.3069 51.6345C45.6209 49.457 47.8942 47.2449 50.1724 45.0392C52.7114 42.6473 55.1368 40.1642 57.6495 37.7512C60.8565 34.6278 64.0421 31.4865 67.242 28.3569C69.647 26.0317 71.9706 23.6388 74.4498 21.3743C76.5759 23.3635 78.6685 25.3799 80.7382 27.4129C80.9009 25.7575 81.1356 24.1074 81.3415 22.4551C81.9591 17.3917 82.602 12.3303 83.1814 7.26289C83.5094 4.84578 83.7836 2.42239 84.0578 0C74.567 4.18134 64.9889 8.20986 55.4754 12.3503L55.4756 12.3506Z" fill="#D9E1EF"/>
<path d="M82.9587 62.299C83.0221 61.5373 83.0078 60.7703 82.9756 60.0075C82.9648 59.3033 82.4309 58.6943 81.8036 58.2967C82.3004 57.9974 82.8762 57.6385 82.9625 57.0745C82.9899 56.3075 82.9649 55.5383 82.9769 54.7715C83.0117 54.0966 82.5148 53.5033 81.9378 53.1004C82.4035 52.8304 82.8764 52.4642 82.9589 51.9546C83.0007 51.1845 82.947 50.4122 82.996 49.6422C83.002 48.9023 82.4107 48.2986 81.7785 47.8685C82.2824 47.5944 82.827 47.2324 82.9385 46.6882C82.9828 46.142 82.9493 45.5937 82.9553 45.0465C82.9362 44.5369 83.0403 43.9866 82.7206 43.5272C82.1664 42.6901 81.1225 42.2329 80.1336 41.8844C77.8675 41.154 75.4613 40.8402 73.0694 40.6203C70.3173 40.4142 67.5446 40.3493 64.7901 40.5439C62.0738 40.7198 59.3384 41.0231 56.7551 41.808C55.9853 42.0591 55.2192 42.3604 54.58 42.8209C54.07 43.1809 53.6881 43.727 53.718 44.3162C53.7348 45.1166 53.694 45.9192 53.7383 46.7197C53.9035 47.2565 54.4566 47.6123 54.9785 47.8844C54.3046 48.2736 53.6569 48.892 53.7036 49.6443C53.7048 50.3465 53.7036 51.0475 53.7097 51.7496C53.6749 52.3461 54.2268 52.8233 54.7739 53.1068C54.2545 53.471 53.7312 53.9502 53.693 54.5634C53.6775 55.3335 53.699 56.1047 53.7026 56.8748C53.6763 57.5184 54.2988 57.9976 54.8878 58.2885C54.5765 58.5532 54.245 58.7991 53.9672 59.0932C53.5793 58.5909 52.9665 58.2812 52.3702 58.0029C51.0881 57.4461 49.6876 57.1375 48.2893 56.8999C42.876 56.0461 37.2854 55.9791 31.8613 56.7964C30.0117 57.1092 28.1072 57.4555 26.4934 58.3471C25.7883 58.7259 25.1418 59.3475 25.143 60.1102C25.1418 60.8845 25.1405 61.6589 25.1549 62.432C25.2914 63.0212 25.9054 63.3686 26.4167 63.7076C25.7487 64.053 25.1479 64.6357 25.1383 65.3495C25.1358 66.1165 25.125 66.8855 25.1454 67.6525C25.2353 68.1966 25.7644 68.5627 26.236 68.8747C26.0349 69.0076 25.8445 69.1519 25.6602 69.3037C25.2365 68.9469 24.6905 68.7365 24.1531 68.544C23.0182 68.1495 21.8294 67.8837 20.6276 67.7006C17.502 67.2182 14.3139 67.1261 11.1464 67.2192C8.73307 67.3375 6.30404 67.5499 3.97926 68.1548C2.90062 68.4257 1.81853 68.7764 0.930257 69.3937C0.407031 69.7516 0.00849099 70.2935 0.00734715 70.89C-0.000986568 71.5847 -0.000984493 72.2806 0.00130319 72.9764C0.00375429 73.4473 0.389225 73.825 0.785322 74.1034C1.48209 74.5794 2.31398 74.8756 3.14719 75.1152C4.89253 75.6091 6.71469 75.8466 8.53062 76.0381C12.9923 76.4096 17.5305 76.3122 21.9275 75.5159C23.455 75.1906 25.0543 74.8327 26.2981 73.9474C26.9673 74.3513 27.7431 74.5847 28.508 74.8107C30.1421 75.2659 31.8397 75.5285 33.5383 75.7158C35.8044 75.9564 38.0885 76.0663 40.3715 76.0391C43.83 75.9523 47.3242 75.7525 50.6679 74.9206C51.9021 74.5931 53.1877 74.2091 54.1322 73.4065C54.6422 73.8261 55.2671 74.1222 55.9075 74.3607C57.1417 74.8222 58.4586 75.0806 59.7706 75.3108C62.8856 75.8038 66.0602 75.9637 69.223 75.9334C72.4792 75.8737 75.7581 75.6551 78.9172 74.9258C79.9624 74.6663 81.0109 74.3597 81.9327 73.846C82.3757 73.5896 82.8401 73.2579 82.9574 72.7829C82.9957 72.0138 82.961 71.2426 82.9707 70.4736C83.0019 69.7862 82.4798 69.196 81.9005 68.7805C82.3721 68.4687 82.9457 68.1098 82.9756 67.5416C83.0246 66.8479 82.9947 66.151 82.9899 65.4562C83.0126 64.6703 82.4046 64.0006 81.7126 63.5591C82.255 63.265 82.8367 62.8831 82.9587 62.2992V62.299ZM24.9668 71.1075C24.7502 71.5334 24.2582 71.7887 23.8021 71.9959C22.1597 72.6489 20.3568 72.879 18.5863 73.0998C14.892 73.4578 11.1415 73.4943 7.45917 73.014C5.9256 72.8236 4.37896 72.5704 2.96043 72.0053C2.50436 71.7961 1.98962 71.5491 1.80514 71.1002C1.72376 70.8658 1.90205 70.6493 2.07935 70.4912C2.5797 70.0936 3.22383 69.879 3.85344 69.6906C6.04423 69.0649 8.35104 68.8472 10.6387 68.6945C13.5214 68.5491 16.4292 68.5973 19.2891 68.9708C20.9614 69.1979 22.6578 69.4981 24.1758 70.1783C24.5457 70.3802 25.1213 70.6439 24.9668 71.1075ZM80.4782 60.9357C78.8538 61.708 76.9946 61.9737 75.1906 62.2281C71.7069 62.6414 68.1767 62.7208 64.6692 62.5357C63.3428 62.4426 62.0151 62.341 60.7067 62.1245C59.2893 61.8954 57.842 61.6673 56.5359 61.1096C56.1253 60.9182 55.68 60.6962 55.4633 60.3196C55.3352 60.1198 55.437 59.8769 55.6034 59.7221C55.9255 59.4176 56.3492 59.2168 56.7695 59.0325C59.0942 59.6928 61.5376 59.9628 63.9654 60.1427C67.625 60.3657 71.3121 60.327 74.9561 59.9398C76.6189 59.7221 78.302 59.5034 79.8906 59.0043C80.3826 59.2585 80.9859 59.4752 81.2422 59.9544C81.393 60.4086 80.8722 60.7402 80.4784 60.9359L80.4782 60.9357ZM80.6052 66.1979C79.7205 66.6614 78.709 66.8885 77.7201 67.1176C74.2413 67.8154 70.6536 67.9871 67.0946 67.9191C64.9854 67.8826 62.8773 67.7276 60.7942 67.4431C59.2558 67.1877 57.6708 66.9503 56.2786 66.2941C55.8992 66.0745 55.3759 65.7898 55.4262 65.3368C55.6405 64.779 56.3276 64.5352 56.8819 64.2914C58.5063 64.7612 60.2075 64.9977 61.8989 65.2006C65.9883 65.6548 70.1376 65.6307 74.2328 65.2468C75.5113 65.1369 76.7743 64.9308 78.0337 64.7152C78.6192 64.5979 79.2033 64.4682 79.7588 64.2641C80.307 64.556 80.9822 64.7989 81.2575 65.3472C81.3198 65.727 80.9356 66.0136 80.6052 66.1979ZM55.4107 44.3078C55.6741 43.771 56.3289 43.5052 56.9036 43.2781C58.9159 42.5844 61.0767 42.3145 63.2148 42.1041C64.1773 42.0057 65.1434 41.9534 66.1106 41.9074C69.0064 41.7703 71.9166 41.9011 74.7884 42.2453C76.0694 42.3887 77.3407 42.6084 78.5785 42.9338C79.3566 43.1451 80.1539 43.3701 80.8135 43.8043C81.0578 43.9748 81.308 44.2291 81.2505 44.5242C81.0136 45.0589 80.3611 45.3037 79.8092 45.5318C78.01 46.1931 76.0587 46.4285 74.1385 46.6536C71.8306 46.9121 69.4985 46.934 67.1737 46.9141C64.1557 46.866 61.1164 46.6326 58.1965 45.9316C57.3788 45.7149 56.5314 45.489 55.8526 45.0182C55.6179 44.8402 55.3388 44.6059 55.4107 44.3078ZM27.0689 59.7972C27.6771 59.2468 28.5425 59.0041 29.3494 58.7624C32.353 57.9807 35.5038 57.7663 38.6211 57.6585C41.2835 57.6145 43.9542 57.7306 46.5855 58.097C48.2483 58.3137 49.917 58.617 51.4578 59.2198C51.9258 59.4165 52.449 59.6603 52.6309 60.1165C52.6931 60.3781 52.474 60.6135 52.2669 60.7788C51.6803 61.1953 50.9608 61.4328 50.2474 61.6285C47.9442 62.2709 45.5248 62.4917 43.1259 62.6528C41.2883 62.7293 39.4484 62.7827 37.6107 62.6978C34.8861 62.6226 32.1471 62.3672 29.5159 61.7226C28.6766 61.4851 27.7729 61.2538 27.1325 60.6972C26.8403 60.4691 26.7614 60.0401 27.0691 59.7974L27.0689 59.7972ZM26.9517 65.2425C27.257 64.8229 27.8029 64.6157 28.2889 64.3949C30.3682 65.004 32.5554 65.2759 34.7305 65.4706C38.7181 65.8034 42.7464 65.6987 46.716 65.2456C48.2148 65.0678 49.7052 64.8146 51.1489 64.4189C51.6936 64.6325 52.2898 64.8836 52.6034 65.3502C52.7961 65.8127 52.249 66.181 51.8349 66.3693C50.0955 67.1353 48.1465 67.4166 46.2384 67.6647C41.9348 68.1502 37.5617 68.1439 33.2581 67.6647C31.9173 67.5099 30.5838 67.285 29.286 66.948C28.5533 66.7376 27.8088 66.496 27.2066 66.0628C26.9338 65.8755 26.747 65.5229 26.9517 65.2425ZM52.0348 71.345C51.022 71.8547 49.8824 72.1297 48.7547 72.3674C46.5915 72.7849 44.3793 72.9994 42.167 73.0633C40.6921 73.1417 39.2101 73.1385 37.7352 73.0686C35.8557 73.0289 33.9775 72.8739 32.1219 72.6061C30.8517 72.4051 29.5816 72.1676 28.3786 71.7522C27.8733 71.567 27.3575 71.3399 27.0151 70.9548C26.8619 70.7926 26.8212 70.5436 26.9504 70.3636C27.1743 69.9859 27.6447 69.809 28.0399 69.5988C29.6978 70.1147 31.4444 70.3742 33.1827 70.5898C35.5601 70.8713 37.964 70.9508 40.3607 70.9528C42.3191 70.8681 44.2788 70.7937 46.224 70.5636C46.6729 70.5563 47.0836 70.3752 47.536 70.3805C47.135 70.5709 46.6776 70.5259 46.242 70.5929C44.5756 70.8127 42.8948 70.9455 41.2094 70.9644C40.6084 70.932 40.0087 71.3913 40.1152 71.9385C40.1559 72.4063 40.6936 72.7253 41.2058 72.6908C44.353 72.5882 47.5254 72.3256 50.5505 71.522C51.1731 71.3955 51.4197 70.6672 51.0569 70.2328C50.9408 70.0686 50.7421 69.9754 50.5661 69.8717C50.8796 69.809 51.1826 69.7095 51.4818 69.6081C51.9151 69.8425 52.4575 70.0393 52.6621 70.4798C52.7747 70.8658 52.3627 71.1588 52.0348 71.345ZM53.9527 69.4374C53.7719 69.248 53.5708 69.0765 53.3577 68.9174C53.6438 68.7457 53.8951 68.5376 54.119 68.3062C54.3523 68.461 54.5847 68.617 54.8122 68.7812C54.4854 68.9571 54.2183 69.1987 53.9527 69.4373V69.4374ZM53.9657 64.3867C53.7142 64.1271 53.4137 63.9116 53.0943 63.7232C53.457 63.4951 53.8174 63.2586 54.1166 62.9656C54.3811 63.2094 54.7126 63.381 55.0347 63.56C54.6481 63.8038 54.2793 64.0706 53.9657 64.3867ZM55.5328 49.4037C55.8715 49.0082 56.4127 48.8146 56.8987 48.5917C59.0093 49.1651 61.1999 49.4874 63.4003 49.6516C66.5871 49.9048 69.8013 49.9038 72.9905 49.6683C75.3045 49.4632 77.6497 49.2435 79.8666 48.5978C80.3777 48.8332 80.95 49.0739 81.2433 49.5354C81.3618 49.8849 81.0565 50.2208 80.7488 50.4132C80.0042 50.8454 79.1483 51.1016 78.2899 51.3006C76.0357 51.8446 73.699 52.056 71.3718 52.1878C69.2612 52.2904 67.1459 52.2674 65.0354 52.1773C62.4436 52.0109 59.8183 51.7755 57.3499 51.0221C56.6819 50.7877 55.9385 50.5564 55.5014 50.025C55.3315 49.845 55.365 49.5741 55.5326 49.4034L55.5328 49.4037ZM55.5807 54.4807C55.8679 54.2066 56.2354 53.9805 56.6413 53.8644C58.7735 54.4807 61.0025 54.8198 63.2387 54.9797C65.3156 55.1691 67.4046 55.2015 69.4913 55.1628C70.4418 55.1733 71.3863 55.0823 72.3357 55.0499C72.8325 54.9442 73.3424 54.918 73.8524 54.9222C73.5101 54.987 73.1712 55.0833 72.8158 55.0426C71.6834 55.1137 70.5497 55.2267 69.4124 55.2393C69.1538 55.4255 68.8127 55.6045 68.803 55.9361C68.6713 56.5002 69.295 57.0212 69.9318 56.9344C72.7498 56.8161 75.5809 56.5797 78.326 55.9905C78.8347 55.8483 79.5362 55.8053 79.747 55.2968C79.9601 54.8605 79.7195 54.3854 79.2693 54.1542C79.589 54.0663 79.9014 53.9564 80.2163 53.8528C80.5862 54.0976 81.0243 54.3039 81.2529 54.6732C81.3642 55.1493 80.8627 55.4946 80.4366 55.6935C79.1808 56.2793 77.7706 56.5504 76.3855 56.7943C72.3238 57.4106 68.1698 57.4671 64.0649 57.2139C61.8012 57.0213 59.5063 56.8162 57.3491 56.1508C56.6799 55.9164 55.9377 55.681 55.5044 55.1473C55.3212 54.9412 55.387 54.6587 55.581 54.4808L55.5807 54.4807ZM80.7799 71.1776C79.9658 71.6611 79.0046 71.9069 78.0672 72.1393C74.5943 72.8906 70.9982 73.0768 67.432 73.0381C64.2165 72.923 60.9616 72.7525 57.8612 71.9436C57.0902 71.7322 56.2761 71.5051 55.692 70.9935C55.522 70.8313 55.3233 70.6012 55.4393 70.3731C55.6513 69.9252 56.1768 69.6908 56.6389 69.4732C57.6863 69.8709 58.8297 70.0237 59.9405 70.235C63.3523 70.7487 66.831 70.9297 70.2895 70.778C71.8411 70.7864 73.3817 70.6283 74.92 70.4693C75.4969 70.4328 76.0501 70.2632 76.6343 70.3071C74.4136 70.5698 72.187 70.892 69.9389 70.8491C69.3392 70.8146 68.7346 71.2908 68.8148 71.8317C68.84 72.3183 69.3906 72.6855 69.9364 72.6091C73.0178 72.493 76.1256 72.2512 79.0919 71.4749C79.5515 71.387 79.8568 70.9747 79.8042 70.5739C79.797 70.2055 79.4618 69.9639 79.1278 69.7975C79.4355 69.7158 79.736 69.6154 80.0256 69.492C80.4565 69.6949 80.9042 69.9189 81.1892 70.2778C81.443 70.6126 81.0838 70.9831 80.7797 71.1776H80.7799Z" fill="#D9E1EF"/>
<path d="M41.0826 67.5998C44.2901 67.4972 47.5285 67.2367 50.6162 66.4352C51.0784 66.318 51.2891 65.845 51.2029 65.4589C51.113 64.9829 50.4798 64.6459 49.9578 64.828C47.009 65.5972 43.9154 65.8064 40.8553 65.9131C40.5237 65.9748 40.2483 66.2165 40.1645 66.5021C39.9826 67.0212 40.4361 67.6281 41.0826 67.5998Z" fill="#D9E1EF"/>
<path d="M78.6778 64.7225C76.0749 65.4121 73.35 65.6245 70.6491 65.7877C70.0995 65.8317 69.4087 65.6695 69.0232 66.1205C68.476 66.6333 69.0077 67.5928 69.8109 67.5154C72.9189 67.4243 76.0401 67.124 79.0453 66.4052C79.4967 66.336 79.8474 65.9553 79.808 65.5535C79.8343 65.0544 79.2478 64.576 78.6778 64.7225Z" fill="#D9E1EF"/>
<path d="M69.6852 51.8242C72.8303 51.7647 75.9971 51.481 79.026 50.713C79.4439 50.6408 79.7815 50.3301 79.7982 49.9513C79.9095 49.4271 79.287 48.8715 78.6859 49.0285C77.7245 49.2974 76.7368 49.4815 75.7431 49.6281C73.7402 49.9022 71.718 50.0854 69.6911 50.1189C69.2588 50.121 68.8818 50.4454 68.8099 50.8074C68.6901 51.2825 69.108 51.8245 69.685 51.8245L69.6852 51.8242Z" fill="#D9E1EF"/>
<path d="M78.6834 59.402C75.7633 60.1407 72.714 60.4002 69.6849 60.4745C69.1618 60.4808 68.7559 60.9244 68.7846 61.3692C68.7846 61.8317 69.2803 62.2409 69.8155 62.1896C72.9199 62.0871 76.0519 61.8568 79.0475 61.0951C79.5072 61.0187 79.8617 60.6399 79.8102 60.2256C79.8365 59.7285 79.2354 59.266 78.6834 59.402Z" fill="#D9E1EF"/>
<path d="M41.0858 62.2981C42.6111 62.2928 44.1329 62.1641 45.6473 62.0156C47.2672 61.8397 48.8847 61.5959 50.4471 61.1774C50.8829 61.0865 51.2372 60.7317 51.199 60.3299C51.2158 59.767 50.4806 59.3222 49.888 59.5639C46.9763 60.311 43.9209 60.4951 40.9039 60.6061C40.5317 60.6605 40.2264 60.9283 40.1437 61.2486C39.9749 61.7519 40.4764 62.3346 41.0858 62.2981Z" fill="#D9E1EF"/>
<path d="M23.5275 70.3396C23.2067 70.1345 22.8055 70.2099 22.4619 70.3229C19.8411 70.957 17.1151 71.2458 14.3985 71.2708C13.758 71.2885 13.3401 71.9583 13.5735 72.4584C13.7052 72.7901 14.1146 73.0015 14.5109 72.9712C17.5029 72.9105 20.5054 72.6028 23.3861 71.8714C24.1295 71.6653 24.1846 70.6681 23.5275 70.3396Z" fill="#D9E1EF"/>
<path d="M69.824 46.494C72.9034 46.426 76.0017 46.1466 78.9782 45.4215C79.457 45.3378 79.8569 44.9578 79.8103 44.5163C79.8378 43.991 79.1722 43.537 78.6023 43.7484C75.6809 44.4976 72.6172 44.7057 69.5883 44.7979C69.0819 44.8617 68.7227 45.3346 68.809 45.7688C68.8568 46.201 69.3236 46.5474 69.824 46.494Z" fill="#D9E1EF"/>
</g>
</svg>
