<svg width="101" height="79" viewBox="0 0 101 79" fill="none" xmlns="http://www.w3.org/2000/svg">
<path d="M91.4306 28.7128C84.7799 10.7558 64.0375 -1.5294 42.4823 0.154023C13.8387 1.88536 -6.60948 27.1914 1.97843 51.275C3.01585 54.2798 4.42303 57.0715 6.13842 59.6328C7.95214 58.6082 11.0146 56.6768 11.0146 56.6768C9.37676 53.7002 8.20095 50.4231 7.59358 46.8798C4.00192 26.3053 24.0141 7.48558 47.8356 10.0545C61.2423 11.2815 73.2574 19.9093 77.118 31.1873L69.1923 32.5573L88.6962 45.693L100.052 27.2225L91.4307 28.7127L91.4306 28.7128Z" fill="#323232"/>
<path d="M69.7642 69.1263C53.804 79.2504 33.1914 77.2818 20.0596 67.1242H12.7153C27.8487 80.498 53.2766 83.0562 71.3324 69.5615C76.7247 65.5032 80.9204 60.211 83.3415 54.3643C80.4191 60.2277 75.7013 65.3891 69.7642 69.1263Z" fill="#323232"/>
<path d="M24.1607 47.9102L11.0378 58.7002V65.646H34.6114V59.8797H19.6273L29.8872 51.7981C30.5232 51.2739 31.1115 50.7354 31.6528 50.1819C32.1934 49.6289 32.6624 49.0242 33.0606 48.3689C33.4579 47.7136 33.7682 46.986 33.991 46.1847C34.2132 45.3841 34.3251 44.4885 34.3251 43.4981C34.3251 41.9548 34.0462 40.6006 33.4899 39.4355C32.9329 38.271 32.1613 37.3024 31.1756 36.5305C30.1892 35.7591 29.0282 35.1762 27.692 34.7831C26.356 34.39 24.9243 34.1934 23.3972 34.1934C21.7427 34.1934 20.2074 34.3899 18.7923 34.7831C17.3764 35.1762 16.144 35.766 15.094 36.5524C14.0442 37.3387 13.201 38.3216 12.5649 39.5011C11.9282 40.6806 11.5629 42.0716 11.4674 43.6729L18.6254 44.1535C18.7208 43.047 19.1421 42.1154 19.89 41.3576C20.6372 40.6007 21.6796 40.2218 23.0157 40.2218C24.1289 40.2218 25.0989 40.5208 25.9266 41.1173C26.7535 41.7146 27.1673 42.537 27.1673 43.5855C27.1673 44.5179 26.8332 45.3329 26.1652 46.0318C25.4971 46.7308 24.8291 47.3574 24.1609 47.9102H24.1607Z" fill="#323232"/>
<path d="M49.1191 34.7178L35.3281 53.0861V58.5902H50.0736V65.6461H56.9452V58.5902H61.2876V53.0861H56.9452V34.7178H49.1191ZM50.0734 53.0862H42.486L49.978 43.28H50.0734V53.0862Z" fill="#323232"/>
<path d="M59.6013 28.6182V40.9356H62.2713V36.9927C62.2713 36.732 62.2891 36.4823 62.3247 36.2433C62.3602 36.0045 62.4342 35.7899 62.5472 35.5997C62.6598 35.4098 62.8231 35.2576 63.0366 35.1435C63.2502 35.0294 63.529 34.9724 63.8733 34.9724C64.2176 34.9724 64.4813 35.0376 64.6655 35.1679C64.8493 35.2983 64.9858 35.4668 65.0749 35.673C65.1638 35.8794 65.2173 36.1048 65.2351 36.3492C65.2529 36.5936 65.2617 36.8298 65.2617 37.058V40.9356H67.9318V36.5691C67.9318 36.037 67.8901 35.5426 67.8072 35.0864C67.724 34.6302 67.5668 34.2338 67.3354 33.8971C67.1041 33.5606 66.7806 33.297 66.3654 33.1069C65.9499 32.917 65.4041 32.8218 64.7278 32.8218C64.4074 32.8218 64.1106 32.86 63.8377 32.9358C63.5646 33.012 63.3274 33.1097 63.1258 33.2292C62.9238 33.3488 62.752 33.4845 62.6095 33.6364C62.4671 33.7887 62.3662 33.9407 62.307 34.0927H62.2714V28.6183H59.6014L59.6013 28.6182Z" fill="#323232"/>
</svg>
