<svg width="24" height="24" viewBox="0 0 24 24" fill="none" xmlns="http://www.w3.org/2000/svg">
<g clip-path="url(#clip0_1_374)">
<path d="M12.2434 20.251C16.687 18.4583 18.487 15.1892 19.1525 12.2874H12.2434V20.251Z" fill="#5A73A0"/>
<path d="M4.51968 7.9709C4.45786 8.8909 4.45422 10.1709 4.7015 11.5818H11.5379V3.49817C10.4869 3.51271 9.44695 3.58908 8.4215 3.73817C7.92695 4.8909 6.81059 6.78544 4.51968 7.9709Z" fill="#5A73A0"/>
<path d="M11.5376 20.1601V12.2874H4.84668C5.50486 15.1383 7.25395 18.3492 11.5376 20.1601Z" fill="#5A73A0"/>
<path d="M21.7124 6.27277C18.476 5.29095 17.6288 2.48004 17.4397 1.61095C13.6979 0.898225 10.036 0.894588 6.55603 1.60732C6.37058 2.47277 5.52331 5.29095 2.28331 6.27277C1.98149 7.99641 0.490579 19.171 11.9997 22.9164C23.5051 19.171 22.0179 7.99641 21.7124 6.27277ZM19.9851 11.9346C19.9851 12.0146 19.956 12.0837 19.9088 12.1419C19.2469 15.371 17.3015 19.1273 12.1197 21.0582C12.0797 21.0728 12.0397 21.08 11.996 21.08C11.9779 21.08 11.956 21.0728 11.9379 21.0691C11.9197 21.0728 11.9051 21.08 11.8869 21.08C11.7815 21.08 11.6906 21.0328 11.6251 20.9564C3.8724 17.9164 3.58512 10.7019 3.82876 7.71641C3.83967 7.59277 3.9124 7.48368 4.02512 7.42913C6.35603 6.29095 7.41785 4.3455 7.84331 3.29095C7.89058 3.17459 7.9924 3.09095 8.11603 3.07277C9.34876 2.88368 10.5997 2.79277 11.876 2.78913C11.8797 2.78913 11.8833 2.7855 11.8869 2.7855C11.8906 2.7855 11.8942 2.7855 11.8979 2.78913C13.2069 2.78913 14.5342 2.88732 15.8797 3.08732C16.0033 3.1055 16.1088 3.18913 16.156 3.3055C16.5815 4.36004 17.6397 6.29459 19.9669 7.42913C20.0797 7.48368 20.1524 7.59277 20.1633 7.71641C20.2469 8.72004 20.2651 10.2037 19.9669 11.8437C19.9742 11.8728 19.9851 11.9019 19.9851 11.9346Z" fill="#5A73A0"/>
<path d="M15.5811 3.75635C14.4502 3.59635 13.3374 3.51635 12.2393 3.49817V11.5782H19.2938C19.5411 10.1673 19.5374 8.88726 19.4756 7.96726C17.1956 6.78908 16.0793 4.90544 15.5811 3.75635Z" fill="#5A73A0"/>
<path d="M4.12328 2.30913C4.12328 2.50186 3.96328 2.66186 3.77055 2.66186C3.12328 2.66186 2.59601 3.21458 2.59601 3.89822C2.59601 4.09095 2.43601 4.25095 2.24328 4.25095C2.04692 4.25095 1.89055 4.09095 1.89055 3.89822C1.89055 3.21458 1.36328 2.66186 0.716009 2.66186C0.519645 2.66186 0.363281 2.50549 0.363281 2.30913C0.363281 2.11276 0.519645 1.9564 0.716009 1.9564C1.35964 1.9564 1.89055 1.40004 1.89055 0.720037C1.89055 0.52731 2.04692 0.36731 2.24328 0.36731C2.43601 0.36731 2.59601 0.52731 2.59601 0.720037C2.59601 1.40004 3.11964 1.9564 3.77055 1.9564C3.96328 1.9564 4.12328 2.1164 4.12328 2.30913Z" fill="#5A73A0"/>
<path d="M21.229 21.9819C21.0254 21.6364 20.7418 21.3492 20.4072 21.1419C20.7418 20.9346 21.0254 20.6437 21.229 20.3019C21.4327 20.6473 21.7163 20.9346 22.0509 21.1419C21.7163 21.3492 21.4327 21.6401 21.229 21.9819Z" fill="#5A73A0"/>
<path d="M23.6361 21.1419C23.6361 21.3346 23.4761 21.4946 23.2834 21.4946C22.3452 21.4946 21.5816 22.2946 21.5816 23.2801C21.5816 23.4764 21.4252 23.6328 21.2288 23.6328C21.0361 23.6328 20.8761 23.4764 20.8761 23.2801C20.8761 22.2946 20.1161 21.4946 19.1779 21.4946C18.9852 21.4946 18.8252 21.3346 18.8252 21.1419C18.8252 20.9455 18.9852 20.7892 19.1779 20.7892C20.1161 20.7892 20.8761 19.9855 20.8761 19.0001C20.8761 18.8073 21.0361 18.6473 21.2288 18.6473C21.4252 18.6473 21.5816 18.8073 21.5816 19.0001C21.5816 19.9855 22.3452 20.7892 23.2834 20.7892C23.4761 20.7892 23.6361 20.9455 23.6361 21.1419Z" fill="#5A73A0"/>
</g>
<defs>
<clipPath id="clip0_1_374">
<rect width="24" height="24" fill="white"/>
</clipPath>
</defs>
</svg>
