<svg width="24" height="24" viewBox="0 0 24 24" fill="none" xmlns="http://www.w3.org/2000/svg">
<path d="M8.79959 1.60005C8.79959 1.82045 8.97879 2.00005 9.19959 2.00005H14.7996C15.0204 2.00005 15.1996 1.82045 15.1996 1.60005V1.20005C15.1996 1.05925 15.2284 0.925649 15.2732 0.800049H8.72559C8.77039 0.925649 8.79919 1.05925 8.79919 1.20005L8.79959 1.60005Z" fill="#5A73A0"/>
<path d="M7.19961 23.2H16.7996C17.682 23.2 18.3996 22.4824 18.3996 21.6V2.40005C18.3996 1.51765 17.682 0.800049 16.7996 0.800049H16.3996C16.1788 0.800049 15.9996 0.979649 15.9996 1.20005V1.60005C15.9996 2.26165 15.4612 2.80005 14.7996 2.80005H9.19961C8.53801 2.80005 7.99961 2.26165 7.99961 1.60005V1.20005C7.99961 0.979649 7.82041 0.800049 7.59961 0.800049H7.19961C6.31721 0.800049 5.59961 1.51765 5.59961 2.40005V21.6C5.59961 22.4824 6.31721 23.2 7.19961 23.2ZM9.99961 21.6H13.9996C14.2208 21.6 14.3996 21.7788 14.3996 22C14.3996 22.2212 14.2208 22.4 13.9996 22.4H9.99961C9.77841 22.4 9.59961 22.2212 9.59961 22C9.59961 21.7788 9.77841 21.6 9.99961 21.6Z" fill="#5A73A0"/>
</svg>
