<svg width="24" height="24" viewBox="0 0 24 24" fill="none" xmlns="http://www.w3.org/2000/svg">
<path fill-rule="evenodd" clip-rule="evenodd" d="M17.9266 17.6717C17.9266 17.4993 18.0665 17.3594 18.2389 17.3594C18.4114 17.3594 18.5512 17.4993 18.5512 17.6717V20.3966C18.5512 20.5691 18.4114 20.7089 18.2389 20.7089H15.5141C15.3416 20.7089 15.2018 20.5691 15.2018 20.3966C15.2018 20.2241 15.3416 20.0843 15.5141 20.0843H17.885C17.908 20.0843 17.9266 20.0656 17.9266 20.0427V17.6717ZM21.3699 6.24302L17.2061 9.01401C17.1937 9.02222 17.187 9.03518 17.1875 9.05001C17.188 9.06484 17.1954 9.07732 17.2083 9.08472L18.1283 9.61593L18.128 9.61646C18.288 9.71332 18.3331 9.91152 18.2369 10.0627C14.9925 15.1582 10.6261 18.655 5.03038 20.4071C5.00979 20.4136 4.99755 20.4345 5.00211 20.4556C5.00662 20.4766 5.02615 20.4907 5.04751 20.4882C7.55844 20.2022 9.86187 19.5259 11.9462 18.4374C15.0095 16.8378 17.6067 14.3445 19.7017 10.8881C19.7902 10.7387 19.9827 10.6877 20.1338 10.7745L21.0542 11.3059C21.067 11.3133 21.0816 11.3135 21.0947 11.3066C21.1077 11.2996 21.1156 11.2873 21.1166 11.2726L21.4345 6.28036C21.4355 6.26419 21.4278 6.24979 21.4137 6.24168C21.3997 6.23352 21.3834 6.23404 21.3699 6.24302ZM14.935 5.81155C14.935 5.26396 14.4891 4.81809 13.9415 4.81809H13.7505C13.7275 4.81809 13.7089 4.79942 13.7089 4.77648V3.66019C13.7089 3.45739 13.875 3.29126 14.0778 3.29126H16.8708C17.0736 3.29126 17.2397 3.45739 17.2397 3.66019V8.20363C17.2397 8.21798 17.2331 8.23032 17.2211 8.23828L16.3702 8.80459C16.1742 8.93457 16.1811 9.22742 16.3864 9.34612L17.482 9.97867C17.4923 9.98462 17.499 9.99355 17.5017 10.0051C17.5044 10.0166 17.5026 10.0276 17.496 10.0375C16.7262 11.2137 15.8966 12.2944 15.0076 13.2805C14.9958 13.2935 14.9782 13.2978 14.9618 13.2915C14.9454 13.2852 14.9351 13.2702 14.9351 13.2526V5.81155H14.935ZM12.0057 8.40009C12.0057 7.85251 11.5598 7.40664 11.0123 7.40664H10.8212C10.7983 7.40664 10.7796 7.38796 10.7796 7.36502V5.81155C10.7796 5.60875 10.9458 5.44262 11.1486 5.44262H13.9415C14.1443 5.44262 14.3105 5.60875 14.3105 5.81155V14.0049C14.3105 14.0162 14.3065 14.0259 14.2985 14.034C13.5917 14.7536 12.8498 15.4173 12.0731 16.0254C12.0602 16.0354 12.0438 16.0372 12.0292 16.03C12.0145 16.0229 12.0058 16.0089 12.0058 15.9926L12.0057 8.40009ZM9.07654 10.9886C9.07654 10.4411 8.63062 9.99518 8.08308 9.99518H7.89204C7.8691 9.99518 7.85043 9.97651 7.85043 9.95356V8.40014C7.85043 8.19734 8.01655 8.03121 8.21935 8.03121H11.0123C11.2151 8.03121 11.3813 8.19734 11.3813 8.40014V16.5244C11.3813 16.5383 11.3752 16.5502 11.364 16.5582C10.6504 17.0724 9.90843 17.5425 9.13836 17.9684C9.12511 17.9757 9.11014 17.9755 9.09708 17.9678C9.08403 17.9601 9.07659 17.9471 9.07659 17.9319V10.9886H9.07654ZM8.45201 18.3068C8.45201 18.3229 8.44356 18.3367 8.42921 18.3439C7.33217 18.9002 6.18084 19.3706 4.97551 19.7558C4.96246 19.76 4.94935 19.7579 4.93827 19.7497C4.92718 19.7416 4.92118 19.7298 4.92118 19.7161V10.9886C4.92118 10.7858 5.08731 10.6197 5.29011 10.6197H8.08308C8.28588 10.6197 8.45201 10.7858 8.45201 10.9886V18.3068ZM3.19025 6.45326C3.19025 6.62572 3.05043 6.76555 2.87796 6.76555C2.7055 6.76555 2.56567 6.62572 2.56567 6.45326V3.7284C2.56567 3.55593 2.7055 3.41611 2.87796 3.41611H5.60283C5.77529 3.41611 5.91511 3.55593 5.91511 3.7284C5.91511 3.90086 5.77529 4.04068 5.60283 4.04068H3.23187C3.20892 4.04068 3.19025 4.05936 3.19025 4.0823V6.45326Z" fill="#5A73A0"/>
</svg>
