<svg width="24" height="24" viewBox="0 0 24 24" fill="none" xmlns="http://www.w3.org/2000/svg">
<path fill-rule="evenodd" clip-rule="evenodd" d="M15.75 1.875H14.25V0.75C14.25 0.336 13.9125 0 13.5 0C13.0875 0 12.75 0.336 12.75 0.75V1.875H11.25V0.75C11.25 0.336 10.9125 0 10.5 0C10.0875 0 9.75 0.336 9.75 0.75V1.875H8.25V0.75C8.25 0.336 7.9125 0 7.5 0C7.0875 0 6.75 0.336 6.75 0.75V1.875H5.625C4.63125 1.875 3.67502 2.27025 2.97377 2.97337C2.26877 3.6765 1.875 4.6305 1.875 5.625V6.75H0.75C0.3375 6.75 0 7.086 0 7.5C0 7.914 0.3375 8.25 0.75 8.25H1.875V9.75H0.75C0.3375 9.75 0 10.086 0 10.5C0 10.914 0.3375 11.25 0.75 11.25H1.875V12.75H0.75C0.3375 12.75 0 13.086 0 13.5C0 13.914 0.3375 14.25 0.75 14.25H1.875V15.75H0.75C0.3375 15.75 0 16.086 0 16.5C0 16.914 0.3375 17.25 0.75 17.25H1.875V18.375C1.875 19.3695 2.26877 20.3235 2.97377 21.0266C3.67502 21.7297 4.63125 22.125 5.625 22.125H6.75V23.25C6.75 23.664 7.0875 24 7.5 24C7.9125 24 8.25 23.664 8.25 23.25V22.125H9.75V23.25C9.75 23.664 10.0875 24 10.5 24C10.9125 24 11.25 23.664 11.25 23.25V22.125H12.75V23.25C12.75 23.664 13.0875 24 13.5 24C13.9125 24 14.25 23.664 14.25 23.25V22.125H15.75V23.25C15.75 23.664 16.0875 24 16.5 24C16.9125 24 17.25 23.664 17.25 23.25V22.125H18.375C19.3687 22.125 20.325 21.7297 21.0262 21.0266C21.7312 20.3235 22.125 19.3695 22.125 18.375V17.25H23.25C23.6625 17.25 24 16.914 24 16.5C24 16.086 23.6625 15.75 23.25 15.75H22.125V14.25H23.25C23.6625 14.25 24 13.914 24 13.5C24 13.086 23.6625 12.75 23.25 12.75H22.125V11.25H23.25C23.6625 11.25 24 10.914 24 10.5C24 10.086 23.6625 9.75 23.25 9.75H22.125V8.25H23.25C23.6625 8.25 24 7.914 24 7.5C24 7.086 23.6625 6.75 23.25 6.75H22.125V5.625C22.125 4.6305 21.7312 3.6765 21.0262 2.97337C20.325 2.27025 19.3687 1.875 18.375 1.875H17.25V0.75C17.25 0.336 16.9125 0 16.5 0C16.0875 0 15.75 0.336 15.75 0.75V1.875ZM10.125 8.625L11.4113 12.5869L15.375 13.875L11.4113 15.1631L10.125 19.125L8.83873 15.1631L4.875 13.875L8.83873 12.5869L10.125 8.625ZM16.125 4.875L16.86 7.13888L19.125 7.875L16.86 8.61112L16.125 10.875L15.39 8.61112L13.125 7.875L15.39 7.13888L16.125 4.875Z" fill="white"/>
</svg>
