<svg width="24" height="24" viewBox="0 0 24 24" fill="none" xmlns="http://www.w3.org/2000/svg">
<path d="M16.5 16.5C16.5 16.6989 16.579 16.8897 16.7197 17.0303C16.8603 17.171 17.0511 17.25 17.25 17.25H21V15.75H17.25C17.0511 15.75 16.8603 15.829 16.7197 15.9697C16.579 16.1103 16.5 16.3011 16.5 16.5Z" fill="#5A73A0"/>
<path d="M19.5 10.6425V9.75C19.5 9.15326 19.2629 8.58097 18.841 8.15901C18.419 7.73705 17.8467 7.5 17.25 7.5H15.18L13.68 9H17.25C17.4489 9 17.6397 9.07902 17.7803 9.21967C17.921 9.36032 18 9.55109 18 9.75V10.5H5.25C5.05109 10.5 4.86032 10.421 4.71967 10.2803C4.57902 10.1397 4.5 9.94891 4.5 9.75C4.5 9.55109 4.57902 9.36032 4.71967 9.21967C4.86032 9.07902 5.05109 9 5.25 9H8.82L7.32 7.5H5.25C4.65326 7.5 4.08097 7.73705 3.65901 8.15901C3.23705 8.58097 3 9.15326 3 9.75V20.25C3 20.8467 3.23705 21.419 3.65901 21.841C4.08097 22.2629 4.65326 22.5 5.25 22.5H18.75C19.3467 22.5 19.919 22.2629 20.341 21.841C20.7629 21.419 21 20.8467 21 20.25V18.75H17.25C16.6533 18.75 16.081 18.5129 15.659 18.091C15.2371 17.669 15 17.0967 15 16.5C15 15.9033 15.2371 15.331 15.659 14.909C16.081 14.4871 16.6533 14.25 17.25 14.25H21V12.75C20.9972 12.2871 20.8516 11.8363 20.5831 11.4591C20.3147 11.082 19.9365 10.7968 19.5 10.6425Z" fill="#5A73A0"/>
<path d="M10.7176 8.7825C10.7873 8.8528 10.8703 8.90859 10.9617 8.94667C11.0531 8.98475 11.1511 9.00435 11.2501 9.00435C11.3491 9.00435 11.4471 8.98475 11.5385 8.94667C11.6299 8.90859 11.7129 8.8528 11.7826 8.7825L14.0326 6.5325C14.1367 6.42703 14.2072 6.2931 14.2352 6.14761C14.2632 6.00212 14.2475 5.85158 14.1901 5.715C14.1338 5.57804 14.0383 5.46079 13.9155 5.37804C13.7927 5.29529 13.6482 5.25074 13.5001 5.25H12.0001V2.25C12.0001 2.05109 11.9211 1.86032 11.7804 1.71967C11.6398 1.57902 11.449 1.5 11.2501 1.5C11.0512 1.5 10.8604 1.57902 10.7198 1.71967C10.5791 1.86032 10.5001 2.05109 10.5001 2.25V5.25H9.0001C8.85204 5.25074 8.7075 5.29529 8.58471 5.37804C8.46192 5.46079 8.36637 5.57804 8.3101 5.715C8.25267 5.85158 8.23698 6.00212 8.26501 6.14761C8.29304 6.2931 8.36354 6.42703 8.4676 6.5325L10.7176 8.7825Z" fill="#5A73A0"/>
</svg>
