<svg width="136" height="31" viewBox="0 0 136 31" fill="none" xmlns="http://www.w3.org/2000/svg">
<path d="M8.54401 9.92696L10.8107 7.66292H15.344H24.4107V12.191L13.2517 23.6854H6.62606L17.785 12.191H15.344H6.27734L8.54401 9.92696Z" fill="black"/>
<path d="M19.5283 16.3708L21.9693 17.9382L24.4104 19.5056V23.6854H19.5283V16.3708Z" fill="black"/>
<path d="M43.4472 13.323L40.3561 13.513C40.3035 13.2492 40.1898 13.0117 40.0154 12.8006C39.8411 12.5842 39.6113 12.4127 39.326 12.286C39.046 12.1541 38.7105 12.0881 38.3193 12.0881C37.7962 12.0881 37.3551 12.1989 36.9959 12.4206C36.6367 12.637 36.4568 12.9272 36.4568 13.2914C36.4568 13.5816 36.5732 13.827 36.8055 14.0276C37.0381 14.2281 37.437 14.3891 38.0023 14.5105L40.2055 14.9538C41.389 15.1965 42.2716 15.5871 42.8526 16.1254C43.4339 16.6637 43.7244 17.3709 43.7244 18.2469C43.7244 19.0438 43.4894 19.7431 43.0193 20.3447C42.5541 20.9464 41.9149 21.4161 41.1013 21.7538C40.2927 22.0863 39.3602 22.2526 38.3036 22.2526C36.6922 22.2526 35.4082 21.9174 34.4518 21.2472C33.5008 20.5717 32.9433 19.6534 32.7795 18.4923L36.1004 18.3182C36.2008 18.809 36.4439 19.1837 36.8296 19.4423C37.2152 19.6956 37.709 19.8223 38.3116 19.8223C38.9034 19.8223 39.3787 19.7088 39.7382 19.4819C40.1026 19.2497 40.2874 18.9515 40.2927 18.5873C40.2874 18.2813 40.1581 18.0306 39.9045 17.8353C39.651 17.6347 39.2598 17.4817 38.7315 17.3762L36.6235 16.9566C35.4347 16.7191 34.5496 16.3075 33.9684 15.7217C33.3924 15.1358 33.1045 14.3891 33.1045 13.4813C33.1045 12.7003 33.3158 12.0274 33.7385 11.4627C34.1665 10.898 34.7662 10.4626 35.5375 10.1565C36.3141 9.85044 37.2229 9.69739 38.2638 9.69739C39.8013 9.69739 41.0114 10.022 41.8936 10.6711C42.7815 11.3202 43.2993 12.2042 43.4472 13.323Z" fill="black"/>
<path d="M51.3982 22.2526C50.146 22.2526 49.0681 21.9992 48.1646 21.4926C47.2666 20.9807 46.5744 20.2577 46.0883 19.3236C45.6022 18.3841 45.3591 17.2732 45.3591 15.9908C45.3591 14.74 45.6022 13.6423 46.0883 12.6976C46.5744 11.753 47.2586 11.0168 48.1409 10.489C49.0287 9.96127 50.0693 9.69739 51.2636 9.69739C52.0667 9.69739 52.8144 9.82669 53.5066 10.0853C54.204 10.3386 54.8115 10.7212 55.3293 11.2331C55.8524 11.7451 56.259 12.3889 56.5498 13.1647C56.8403 13.9352 56.9857 14.8377 56.9857 15.8721V16.7983H46.7066V14.7084H53.8075C53.8075 14.2228 53.7019 13.7927 53.4905 13.418C53.2792 13.0433 52.9859 12.7504 52.6107 12.5393C52.2411 12.323 51.8104 12.2148 51.3191 12.2148C50.8064 12.2148 50.3521 12.3335 49.9559 12.571C49.5647 12.8032 49.2585 13.1172 49.0364 13.513C48.8146 13.9036 48.7009 14.339 48.6957 14.8192V16.8062C48.6957 17.4078 48.8066 17.9276 49.0287 18.3657C49.2557 18.8037 49.5755 19.1415 49.9877 19.379C50.3995 19.6165 50.8884 19.7352 51.4537 19.7352C51.8289 19.7352 52.1724 19.6824 52.4841 19.5768C52.7959 19.4713 53.0627 19.313 53.2844 19.1019C53.5066 18.8908 53.6754 18.6322 53.7918 18.3261L56.9142 18.5319C56.7559 19.2813 56.4309 19.9358 55.9396 20.4951C55.4535 21.0493 54.8247 21.482 54.0534 21.7934C53.2872 22.0995 52.4022 22.2526 51.3982 22.2526Z" fill="black"/>
<path d="M59.1885 22.015V9.85574H62.4615V11.9773H62.5885C62.8103 11.2226 63.183 10.6526 63.7061 10.2674C64.2292 9.87685 64.8314 9.68158 65.5128 9.68158C65.682 9.68158 65.8643 9.69213 66.06 9.71324C66.2552 9.73435 66.4272 9.76336 66.575 9.80032V12.7927C66.4164 12.7451 66.197 12.7029 65.917 12.666C65.637 12.6291 65.381 12.6106 65.1484 12.6106C64.6518 12.6106 64.2079 12.7188 63.817 12.9352C63.4313 13.1462 63.1248 13.4418 62.8974 13.8218C62.6757 14.2017 62.5648 14.6398 62.5648 15.1358V22.015H59.1885Z" fill="black"/>
<path d="M75.4065 9.85574V12.3889H68.0754V9.85574H75.4065ZM69.7399 6.94254H73.1158V18.2786C73.1158 18.59 73.1636 18.8327 73.2588 19.0069C73.3536 19.1758 73.4858 19.2945 73.6549 19.3631C73.8293 19.4317 74.0301 19.466 74.2572 19.466C74.4158 19.466 74.5741 19.4528 74.7328 19.4264C74.8911 19.3948 75.0128 19.371 75.0972 19.3552L75.6283 21.8646C75.4592 21.9174 75.2214 21.9781 74.9152 22.0467C74.6087 22.1206 74.2362 22.1655 73.7976 22.1813C72.984 22.213 72.2705 22.1048 71.6578 21.8567C71.05 21.6087 70.5771 21.2234 70.2389 20.701C69.901 20.1785 69.7343 19.5188 69.7399 18.7219V6.94254Z" fill="black"/>
<path d="M83.0228 22.2526C81.7706 22.2526 80.6927 21.9992 79.7892 21.4926C78.8909 20.9807 78.1987 20.2577 77.7126 19.3236C77.2265 18.3841 76.9834 17.2732 76.9834 15.9908C76.9834 14.74 77.2265 13.6423 77.7126 12.6976C78.1987 11.753 78.8829 11.0168 79.7655 10.489C80.653 9.96127 81.6939 9.69739 82.8879 9.69739C83.691 9.69739 84.4386 9.82669 85.1308 10.0853C85.8283 10.3386 86.4357 10.7212 86.9536 11.2331C87.4767 11.7451 87.8836 12.3889 88.1741 13.1647C88.4649 13.9352 88.61 14.8377 88.61 15.8721V16.7983H78.3308V14.7084H85.4321C85.4321 14.2228 85.3265 13.7927 85.1152 13.418C84.9035 13.0433 84.6106 12.7504 84.2353 12.5393C83.8653 12.323 83.4347 12.2148 82.9433 12.2148C82.4311 12.2148 81.9767 12.3335 81.5802 12.571C81.1893 12.8032 80.8828 13.1172 80.661 13.513C80.4388 13.9036 80.3255 14.339 80.3203 14.8192V16.8062C80.3203 17.4078 80.4312 17.9276 80.653 18.3657C80.8803 18.8037 81.1997 19.1415 81.6119 19.379C82.0241 19.6165 82.5127 19.7352 83.0783 19.7352C83.4532 19.7352 83.7966 19.6824 84.1084 19.5768C84.4202 19.4713 84.6869 19.313 84.9091 19.1019C85.1308 18.8908 85.3 18.6322 85.4161 18.3261L88.5389 18.5319C88.3802 19.2813 88.0552 19.9358 87.5639 20.4951C87.0777 21.0493 86.449 21.482 85.6776 21.7934C84.9115 22.0995 84.0265 22.2526 83.0228 22.2526Z" fill="black"/>
<path d="M93.4167 9.85574L95.6517 14.1067L97.9424 9.85574H101.406L97.8789 15.9354L101.501 22.015H98.0533L95.6517 17.8116L93.2902 22.015H89.803L93.4167 15.9354L89.9296 9.85574H93.4167Z" fill="black"/>
<path d="M103.411 22.015V9.85574H106.787V22.015H103.411ZM105.107 8.28832C104.605 8.28832 104.174 8.12207 103.815 7.78957C103.461 7.45181 103.284 7.04808 103.284 6.57841C103.284 6.11397 103.461 5.71553 103.815 5.38303C104.174 5.04527 104.605 4.8764 105.107 4.8764C105.608 4.8764 106.037 5.04527 106.391 5.38303C106.75 5.71553 106.929 6.11397 106.929 6.57841C106.929 7.04808 106.75 7.45181 106.391 7.78957C106.037 8.12207 105.608 8.28832 105.107 8.28832Z" fill="black"/>
<path d="M115.967 9.85573V12.3889H108.636V9.85573H115.967ZM110.3 6.94254H113.676V18.2786C113.676 18.59 113.724 18.8327 113.819 19.0069C113.914 19.1758 114.046 19.2945 114.215 19.3631C114.39 19.4317 114.59 19.466 114.818 19.466C114.976 19.466 115.135 19.4528 115.293 19.4264C115.452 19.3948 115.573 19.371 115.658 19.3552L116.189 21.8646C116.02 21.9174 115.782 21.9781 115.475 22.0467C115.169 22.1206 114.797 22.1655 114.358 22.1813C113.544 22.213 112.831 22.1048 112.218 21.8567C111.611 21.6087 111.138 21.2234 110.8 20.701C110.461 20.1785 110.295 19.5188 110.3 18.7219V6.94254Z" fill="black"/>
<path d="M120.251 26.5748C119.823 26.5748 119.421 26.5405 119.046 26.4719C118.676 26.4086 118.37 26.3268 118.126 26.2265L118.887 23.7091C119.284 23.8305 119.64 23.8965 119.957 23.9071C120.28 23.9176 120.557 23.8437 120.79 23.6854C121.027 23.5271 121.22 23.2579 121.368 22.8779L121.566 22.3634L117.199 9.85574H120.75L123.27 18.7852H123.397L125.941 9.85574H129.515L124.784 23.3292C124.557 23.9836 124.248 24.5535 123.857 25.0391C123.471 25.5299 122.982 25.9072 122.391 26.1711C121.799 26.4402 121.085 26.5748 120.251 26.5748Z" fill="black"/>
</svg>
