<svg width="172" height="39" viewBox="0 0 172 39" fill="none" xmlns="http://www.w3.org/2000/svg">
<path d="M10.8051 12.4889L13.6718 9.64062H19.4051H30.8718V15.3373L16.759 29.7979H8.3795L22.4923 15.3373H19.4051H7.93848L10.8051 12.4889Z" fill="white"/>
<path d="M24.6975 20.5957L27.7847 22.5676L30.8719 24.5395V29.7979H24.6975V20.5957Z" fill="white"/>
<path d="M54.9475 16.761L51.0382 17C50.9716 16.6681 50.8278 16.3693 50.6073 16.1037C50.3868 15.8315 50.0962 15.6157 49.7354 15.4563C49.3813 15.2903 48.957 15.2074 48.4622 15.2074C47.8006 15.2074 47.2428 15.3468 46.7885 15.6257C46.3342 15.8979 46.1067 16.263 46.1067 16.7212C46.1067 17.0863 46.254 17.3951 46.5477 17.6474C46.8419 17.8997 47.3464 18.1022 48.0613 18.2549L50.8477 18.8126C52.3445 19.118 53.4608 19.6093 54.1955 20.2866C54.9307 20.9638 55.2981 21.8534 55.2981 22.9556C55.2981 23.9581 55.0008 24.8379 54.4063 25.5948C53.818 26.3517 53.0096 26.9426 51.9807 27.3675C50.958 27.7858 49.7787 27.9949 48.4423 27.9949C46.4044 27.9949 44.7805 27.5733 43.571 26.7301C42.3682 25.8802 41.6632 24.725 41.4561 23.2643L45.6559 23.0452C45.783 23.6627 46.0904 24.1341 46.5781 24.4594C47.0659 24.7781 47.6904 24.9375 48.4525 24.9375C49.2009 24.9375 49.802 24.7947 50.2567 24.5092C50.7176 24.2171 50.9513 23.842 50.958 23.3838C50.9513 22.9988 50.7877 22.6834 50.4671 22.4377C50.1465 22.1854 49.6516 21.9929 48.9835 21.8601L46.3175 21.3322C44.814 21.0335 43.6946 20.5156 42.9596 19.7786C42.2312 19.0416 41.867 18.1022 41.867 16.9602C41.867 15.9775 42.1343 15.131 42.6689 14.4206C43.2101 13.7102 43.9686 13.1624 44.9441 12.7773C45.9263 12.3923 47.0756 12.1997 48.3921 12.1997C50.3365 12.1997 51.8669 12.608 52.9827 13.4247C54.1056 14.2413 54.7605 15.3534 54.9475 16.761Z" fill="white"/>
<path d="M65.0036 27.9949C63.4199 27.9949 62.0567 27.6762 60.914 27.0388C59.7784 26.3948 58.9029 25.4852 58.2881 24.31C57.6734 23.1282 57.366 21.7306 57.366 20.1172C57.366 18.5437 57.6734 17.1627 58.2881 15.9742C58.9029 14.7858 59.7682 13.8596 60.884 13.1956C62.0069 12.5317 63.3229 12.1997 64.8334 12.1997C65.8491 12.1997 66.7947 12.3624 67.6701 12.6877C68.5521 13.0064 69.3204 13.4878 69.9753 14.1318C70.6369 14.7758 71.1511 15.5858 71.5189 16.5618C71.8863 17.5312 72.0702 18.6665 72.0702 19.9678V21.1331H59.0701V18.5039H68.0507C68.0507 17.893 67.9171 17.3519 67.6498 16.8805C67.3825 16.4091 67.0116 16.0406 66.5371 15.775C66.0696 15.5028 65.5249 15.3667 64.9035 15.3667C64.2552 15.3667 63.6806 15.5161 63.1796 15.8149C62.6847 16.107 62.2975 16.5021 62.0166 17C61.7361 17.4914 61.5923 18.0391 61.5857 18.6433V21.143C61.5857 21.8999 61.7259 22.5539 62.0069 23.105C62.294 23.6561 62.6984 24.081 63.2197 24.3798C63.7405 24.6785 64.3589 24.8279 65.0738 24.8279C65.5483 24.8279 65.9827 24.7615 66.377 24.6287C66.7713 24.4959 67.1087 24.2968 67.3892 24.0312C67.6701 23.7656 67.8835 23.4403 68.0308 23.0552L71.9798 23.3141C71.7796 24.2569 71.3685 25.0802 70.7471 25.784C70.1323 26.4811 69.3372 27.0255 68.3616 27.4173C67.3927 27.8024 66.2734 27.9949 65.0036 27.9949Z" fill="white"/>
<path d="M74.8567 27.6965V12.3993H78.9962V15.0683H79.1567C79.4372 14.1189 79.9086 13.4018 80.5702 12.9171C81.2317 12.4258 81.9934 12.1802 82.8551 12.1802C83.069 12.1802 83.2997 12.1935 83.5471 12.22C83.7941 12.2466 84.0115 12.2831 84.1985 12.3296V16.0941C83.9978 16.0343 83.7204 15.9812 83.3663 15.9347C83.0121 15.8883 82.6884 15.865 82.3943 15.865C81.7662 15.865 81.2048 16.0012 80.7104 16.2734C80.2226 16.5389 79.835 16.9107 79.5474 17.3888C79.2669 17.8668 79.1267 18.4179 79.1267 19.042V27.6965H74.8567Z" fill="white"/>
<path d="M95.3674 12.3994V15.5863H86.0957V12.3994H95.3674ZM88.2007 8.73438H92.4703V22.9959C92.4703 23.3876 92.5307 23.693 92.6511 23.9121C92.7711 24.1246 92.9382 24.2739 93.1521 24.3603C93.3726 24.4466 93.6267 24.4898 93.9138 24.4898C94.1144 24.4898 94.3147 24.4732 94.5153 24.4399C94.7156 24.4001 94.8695 24.3702 94.9762 24.3503L95.6479 27.5074C95.434 27.5737 95.1332 27.6501 94.746 27.7364C94.3583 27.8294 93.8873 27.8858 93.3325 27.9057C92.3036 27.9456 91.4012 27.8095 90.6264 27.4974C89.8576 27.1854 89.2596 26.7007 88.8318 26.0434C88.4045 25.3861 88.1937 24.5561 88.2007 23.5536V8.73438Z" fill="white"/>
<path d="M104.999 27.9949C103.416 27.9949 102.053 27.6762 100.91 27.0388C99.7737 26.3948 98.8983 25.4852 98.2835 24.31C97.6687 23.1282 97.3613 21.7306 97.3613 20.1172C97.3613 18.5437 97.6687 17.1627 98.2835 15.9742C98.8983 14.7858 99.7636 13.8596 100.88 13.1956C102.002 12.5317 103.319 12.1997 104.829 12.1997C105.844 12.1997 106.79 12.3624 107.665 12.6877C108.548 13.0064 109.316 13.4878 109.971 14.1318C110.632 14.7758 111.147 15.5858 111.514 16.5618C111.882 17.5312 112.066 18.6665 112.066 19.9678V21.1331H99.0655V18.5039H108.046C108.046 17.893 107.913 17.3519 107.646 16.8805C107.378 16.4091 107.007 16.0406 106.533 15.775C106.065 15.5028 105.52 15.3667 104.899 15.3667C104.251 15.3667 103.676 15.5161 103.175 15.8149C102.681 16.107 102.293 16.5021 102.012 17C101.731 17.4914 101.588 18.0391 101.582 18.6433V21.143C101.582 21.8999 101.722 22.5539 102.002 23.105C102.29 23.6561 102.694 24.081 103.215 24.3798C103.736 24.6785 104.354 24.8279 105.07 24.8279C105.544 24.8279 105.978 24.7615 106.372 24.6287C106.767 24.4959 107.104 24.2968 107.385 24.0312C107.665 23.7656 107.879 23.4403 108.026 23.0552L111.976 23.3141C111.775 24.2569 111.364 25.0802 110.742 25.784C110.128 26.4811 109.333 27.0255 108.357 27.4173C107.388 27.8024 106.269 27.9949 104.999 27.9949Z" fill="white"/>
<path d="M118.145 12.3989L120.971 17.747L123.868 12.3989H128.248L123.788 20.0475L128.368 27.6961H124.008L120.971 22.4079L117.984 27.6961H113.574L118.145 20.0475L113.734 12.3989H118.145Z" fill="white"/>
<path d="M130.784 27.6963V12.3991H135.054V27.6963H130.784ZM132.929 10.4272C132.294 10.4272 131.75 10.218 131.295 9.79971C130.847 9.37479 130.624 8.86687 130.624 8.276C130.624 7.6917 130.847 7.19044 131.295 6.77213C131.75 6.34721 132.294 6.13477 132.929 6.13477C133.564 6.13477 134.105 6.34721 134.553 6.77213C135.007 7.19044 135.234 7.6917 135.234 8.276C135.234 8.86687 135.007 9.37479 134.553 9.79971C134.105 10.218 133.564 10.4272 132.929 10.4272Z" fill="white"/>
<path d="M146.663 12.3994V15.5863H137.392V12.3994H146.663ZM139.497 8.73438H143.767V22.9959C143.767 23.3876 143.827 23.693 143.947 23.9121C144.067 24.1246 144.235 24.2739 144.448 24.3603C144.669 24.4466 144.923 24.4898 145.21 24.4898C145.41 24.4898 145.611 24.4732 145.811 24.4399C146.012 24.4001 146.165 24.3702 146.273 24.3503L146.944 27.5074C146.73 27.5737 146.43 27.6501 146.042 27.7364C145.654 27.8294 145.183 27.8858 144.629 27.9057C143.599 27.9456 142.698 27.8095 141.922 27.4974C141.154 27.1854 140.556 26.7007 140.128 26.0434C139.7 25.3861 139.49 24.5561 139.497 23.5536V8.73438Z" fill="white"/>
<path d="M152.081 33.4326C151.54 33.4326 151.031 33.3895 150.557 33.3031C150.089 33.2235 149.702 33.1205 149.394 32.9944L150.357 29.8274C150.858 29.9801 151.309 30.0631 151.71 30.0764C152.118 30.0897 152.468 29.9967 152.762 29.7975C153.063 29.5984 153.307 29.2597 153.494 28.7817L153.745 28.1343L148.222 12.3989H152.712L155.899 23.6328H156.06L159.277 12.3989H163.798L157.814 29.3494C157.527 30.1727 157.136 30.8897 156.641 31.5006C156.154 32.118 155.536 32.5927 154.787 32.9247C154.039 33.2633 153.136 33.4326 152.081 33.4326Z" fill="white"/>
</svg>
