<svg width="28" height="28" viewBox="0 0 28 28" fill="none" xmlns="http://www.w3.org/2000/svg">
<g clip-path="url(#clip0_1_229)">
<path d="M12.0912 27.9929C5.76568 27.2021 0.796568 22.233 0.00659802 15.909C-0.0553175 15.4204 0.326404 14.9869 0.820635 14.9869H4.13684C4.53743 14.9869 4.87873 15.2761 4.94606 15.6703C5.58381 19.4472 8.55067 22.4149 12.33 23.0534C12.7242 23.1207 13.0134 23.462 13.0134 23.8626V27.1788C13.0134 27.6668 12.5903 28.0523 12.0912 27.9929Z" fill="#5A73A0"/>
<path d="M4.13781 13.1275H0.821605C0.327101 13.1275 -0.0542925 12.6936 0.00756836 12.2053C0.876082 5.24756 6.82107 0.000488281 13.8348 0.000488281C16.9507 0.000488281 19.9048 1.01641 22.3781 2.93852C22.7714 3.24542 22.8009 3.82088 22.455 4.16677L20.1107 6.51191C19.827 6.79632 19.3816 6.8316 19.0546 6.60002C17.5155 5.50315 15.7104 4.9231 13.8348 4.9231C9.42092 4.9231 5.68247 8.08627 4.94697 12.444C4.8797 12.8382 4.5384 13.1275 4.13781 13.1275Z" fill="#5A73A0"/>
<path d="M14.873 27.1796V23.8634C14.873 23.4628 15.1623 23.1215 15.5565 23.0542C19.9142 22.3187 23.0774 18.5802 23.0774 14.1664C23.0774 12.2908 22.4974 10.4856 21.4005 8.9465C21.1681 8.62041 21.205 8.17332 21.4886 7.89049L23.8337 5.54618C24.1752 5.20471 24.7525 5.22637 25.062 5.62308C26.9841 8.09642 28 11.0505 28 14.1663C28 21.1801 22.7529 27.1251 15.7952 27.9936C15.2906 28.0537 14.873 27.6618 14.873 27.1796Z" fill="#5A73A0"/>
<path d="M10.7161 10.7206C10.7161 10.2675 10.3487 9.90021 9.89563 9.90021H8.25476C7.80166 9.90021 7.43433 10.2675 7.43433 10.7206V17.2841C7.43433 17.7372 7.80166 18.1046 8.25476 18.1046H9.89563C10.3487 18.1046 10.7161 17.7372 10.7161 17.2841V10.7206Z" fill="#5A73A0"/>
<path d="M15.6392 17.2841V9.07971C15.6392 8.62661 15.2718 8.25928 14.8187 8.25928H13.1779C12.7248 8.25928 12.3574 8.62661 12.3574 9.07971V17.2841C12.3574 17.7372 12.7248 18.1045 13.1779 18.1045H14.8187C15.2719 18.1045 15.6392 17.7372 15.6392 17.2841Z" fill="#5A73A0"/>
<path d="M20.561 17.2841V14.0023C20.561 13.5492 20.1937 13.1819 19.7406 13.1819H18.0997C17.6466 13.1819 17.2793 13.5492 17.2793 14.0023V17.2841C17.2793 17.7372 17.6466 18.1045 18.0997 18.1045H19.7406C20.1938 18.1045 20.561 17.7372 20.561 17.2841Z" fill="#5A73A0"/>
</g>
<defs>
<clipPath id="clip0_1_229">
<rect width="28" height="28" fill="white"/>
</clipPath>
</defs>
</svg>
