<svg width="28" height="28" viewBox="0 0 28 28" fill="none" xmlns="http://www.w3.org/2000/svg">
<g clip-path="url(#clip0_1_272)">
<path d="M2.5166 14.8203H0.821289C0.367875 14.8203 0.000976562 15.1872 0.000976562 15.6406V27.1797C0.000976562 27.6331 0.367875 28 0.821289 28H2.5166C3.87362 28 4.97754 26.8961 4.97754 25.5391V17.2812C4.97754 15.9242 3.87362 14.8203 2.5166 14.8203Z" fill="#5A73A0"/>
<path d="M14.001 0C9.02545 0 4.97754 4.1026 4.97754 9.07812C4.97754 10.7749 5.45048 12.4064 6.32028 13.8127C7.42229 13.1977 8.64652 12.8576 9.91708 12.8576C11.6616 12.8576 13.4243 13.4681 14.9198 14.8203H18.9775C19.5712 14.8203 20.1181 14.9966 20.599 15.2733C22.1317 13.6554 23.0791 11.4775 23.0791 9.07812C23.0791 4.1026 18.9765 0 14.001 0ZM14.001 6.61719C15.358 6.61719 16.462 7.72111 16.462 9.07812C16.462 10.0691 15.8724 10.9591 14.9599 11.3452C14.9146 11.3644 14.8673 11.3719 14.8213 11.3882V12.3594C14.8213 12.8128 14.4544 13.1797 14.001 13.1797C13.5476 13.1797 13.1807 12.8128 13.1807 12.3594V11.3905C12.755 11.2472 12.3423 11.0068 11.9719 10.6483C11.6467 10.3334 11.6386 9.81433 11.9543 9.48828C12.2691 9.16305 12.7898 9.15584 13.1143 9.47067C13.5124 9.856 13.9522 9.98977 14.3199 9.83434C14.6243 9.70539 14.8214 9.40898 14.8214 9.07812C14.8214 8.62553 14.4537 8.25781 14.0011 8.25781C12.6441 8.25781 11.5401 7.15389 11.5401 5.79688C11.54 4.76585 12.1905 3.8366 13.1591 3.48414C13.1662 3.48152 13.1736 3.48272 13.1807 3.48026V2.46094C13.1807 2.00752 13.5476 1.64062 14.001 1.64062C14.4544 1.64062 14.8213 2.00752 14.8213 2.46094V3.47074C15.3623 3.65302 15.8788 4.01439 16.3218 4.5424C16.6134 4.88928 16.5686 5.40679 16.2209 5.69756C15.8748 5.98998 15.3557 5.94508 15.0657 5.59661C14.6315 5.08069 14.142 4.8732 13.7206 5.02545C13.3978 5.1432 13.1807 5.45322 13.1807 5.79688C13.1807 6.24947 13.5484 6.61719 14.001 6.61719Z" fill="#5A73A0"/>
<path d="M27.3284 15.1321C26.6557 14.6399 25.7205 14.7383 25.1628 15.3453L20.7331 20.8578C20.4213 21.186 19.8307 21.3828 19.519 21.3828H14.001C13.5415 21.3828 13.1807 21.0219 13.1807 20.5625C13.1807 20.1031 13.5415 19.7422 14.001 19.7422C17.676 19.7422 14.8924 19.7422 18.9775 19.7422C19.8799 19.7422 20.6182 19.0039 20.6182 18.1016C20.6182 17.1992 19.8799 16.461 18.9775 16.461C15.125 16.461 18.7451 16.461 14.6244 16.461C14.2156 16.461 14.0117 16.2017 13.6893 15.9195C13.1971 15.4766 12.6393 15.1485 12.065 14.9187C10.2872 14.1927 8.23292 14.4124 6.61816 15.5354C6.61816 18.5223 6.61816 22.9731 6.61816 26.3593H18.9775C20.5197 26.3593 21.9963 25.5664 22.9151 24.3359L27.6729 17.4453C28.2143 16.7234 28.0666 15.6735 27.3284 15.1321Z" fill="#5A73A0"/>
</g>
<defs>
<clipPath id="clip0_1_272">
<rect width="28" height="28" fill="white"/>
</clipPath>
</defs>
</svg>
