<svg width="28" height="25" viewBox="0 0 28 25" fill="none" xmlns="http://www.w3.org/2000/svg">
<path d="M27 22.027H1C0.734784 22.027 0.48043 22.1324 0.292893 22.3199C0.105357 22.5075 0 22.7618 0 23.027C0 23.2923 0.105357 23.5466 0.292893 23.7341C0.48043 23.9217 0.734784 24.027 1 24.027H27C27.2652 24.027 27.5196 23.9217 27.7071 23.7341C27.8946 23.5466 28 23.2923 28 23.027C28 22.7618 27.8946 22.5075 27.7071 22.3199C27.5196 22.1324 27.2652 22.027 27 22.027Z" fill="#5A73A0"/>
<path d="M22.92 20.0271C24.4716 18.3028 25.4903 16.1658 25.8527 13.8747C26.215 11.5836 25.9056 9.23655 24.9619 7.11762C24.0181 4.99869 22.4804 3.1987 20.535 1.93549C18.5895 0.672284 16.3196 0 14 0C11.6804 0 9.41052 0.672284 7.46505 1.93549C5.51958 3.1987 3.98191 4.99869 3.03815 7.11762C2.09438 9.23655 1.78497 11.5836 2.14735 13.8747C2.50973 16.1658 3.52838 18.3028 5.08001 20.0271H22.92ZM12 13.0271C11.4696 13.0271 10.9609 12.8163 10.5858 12.4413C10.2107 12.0662 10 11.5575 10 11.0271V9.02705C10 8.49662 10.2107 7.98791 10.5858 7.61284C10.9609 7.23777 11.4696 7.02705 12 7.02705H13V6.02705C13 5.76184 13.1054 5.50748 13.2929 5.31995C13.4804 5.13241 13.7348 5.02705 14 5.02705C14.2652 5.02705 14.5196 5.13241 14.7071 5.31995C14.8947 5.50748 15 5.76184 15 6.02705V7.02705H17C17.2652 7.02705 17.5196 7.13241 17.7071 7.31995C17.8947 7.50748 18 7.76184 18 8.02705C18 8.29227 17.8947 8.54663 17.7071 8.73416C17.5196 8.9217 17.2652 9.02705 17 9.02705H12V11.0271H16C16.5304 11.0271 17.0391 11.2378 17.4142 11.6128C17.7893 11.9879 18 12.4966 18 13.0271V15.0271C18 15.5575 17.7893 16.0662 17.4142 16.4413C17.0391 16.8163 16.5304 17.0271 16 17.0271H15V18.0271C15 18.2923 14.8947 18.5466 14.7071 18.7342C14.5196 18.9217 14.2652 19.0271 14 19.0271C13.7348 19.0271 13.4804 18.9217 13.2929 18.7342C13.1054 18.5466 13 18.2923 13 18.0271V17.0271H11C10.7348 17.0271 10.4804 16.9217 10.2929 16.7342C10.1054 16.5466 10 16.2923 10 16.0271C10 15.7618 10.1054 15.5075 10.2929 15.3199C10.4804 15.1324 10.7348 15.0271 11 15.0271H16V13.0271H12Z" fill="#5A73A0"/>
</svg>
