<svg width="28" height="28" viewBox="0 0 28 28" fill="none" xmlns="http://www.w3.org/2000/svg">
<g clip-path="url(#clip0_1_247)">
<path d="M3.5367 8.01184C1.51545 10.2839 0.189055 13.2136 0 16.4402H3.32281C3.50104 14.1166 4.42269 12.0017 5.85594 10.3311L3.5367 8.01184Z" fill="#5A73A0"/>
<path d="M13.6339 18.1665C13.3542 18.3077 13.1797 18.5891 13.1797 18.9011C13.1805 19.5901 14.1522 19.9641 14.612 19.4474L17.4791 16.2423L13.6339 18.1665Z" fill="#5A73A0"/>
<path d="M4.69629 6.85182L7.01553 9.17106C8.68612 7.73781 10.8557 6.81617 13.1793 6.63794V3.35669C9.95274 3.54569 6.96845 4.83057 4.69629 6.85182Z" fill="#5A73A0"/>
<path d="M14.8203 3.35669V6.63794C17.1439 6.81617 19.3135 7.73781 20.9841 9.17106L23.3033 6.85182C21.0312 4.83057 18.0469 3.54569 14.8203 3.35669Z" fill="#5A73A0"/>
<path d="M24.4638 8.01184L22.1445 10.3311C23.5778 12.0016 24.4994 14.1166 24.6777 16.4402H28.0005C27.8114 13.2136 26.485 10.2839 24.4638 8.01184Z" fill="#5A73A0"/>
<path d="M24.6494 18.0808C24.5779 19.0111 24.4228 19.9309 24.1115 20.8141C23.961 21.2393 23.4969 21.4659 23.0653 21.3156C22.6375 21.165 22.4132 20.6964 22.5638 20.2694C22.905 19.3008 23.0781 18.2891 23.0781 17.2604C23.0781 14.7729 22.0663 12.5172 20.4326 10.8833C20.4325 10.8832 20.4322 10.8831 20.4322 10.8831C20.4322 10.8831 20.4319 10.8826 20.4318 10.8825C18.7979 9.24878 16.4876 8.23706 14 8.23706C11.5124 8.23706 9.2021 9.24883 7.56815 10.8826C7.56804 10.8827 7.56793 10.883 7.56793 10.883C7.56793 10.883 7.56744 10.8832 7.56733 10.8833C5.93365 12.5172 4.92188 14.7729 4.92188 17.2605C4.92188 18.2891 5.09491 19.3009 5.43616 20.2694C5.58677 20.6964 5.36244 21.165 4.93467 21.3156C4.5109 21.4654 4.03988 21.2411 3.88845 20.8141C3.57711 19.9309 3.42213 19.0112 3.35059 18.0809H0C0.117359 20.0842 0.639844 21.7798 1.37304 23.3016C1.76559 24.1162 2.62752 24.6434 3.5688 24.6434H24.4303C25.3724 24.6434 26.2344 24.1162 26.6277 23.3007C27.3517 21.7938 27.8872 20.0055 28 18.0809H24.6494V18.0808ZM21.6233 14.1314L15.8345 20.5417C14.3443 22.2086 11.5391 21.1658 11.5391 18.9011C11.5391 17.9647 12.06 17.1218 12.8974 16.701C12.8985 16.7006 12.899 16.6995 12.9001 16.699L20.6452 12.8506C20.6479 12.8492 20.6507 12.8497 20.6534 12.8484C21.4468 12.4616 22.2278 13.4364 21.6233 14.1314Z" fill="#5A73A0"/>
</g>
<defs>
<clipPath id="clip0_1_247">
<rect width="28" height="28" fill="white"/>
</clipPath>
</defs>
</svg>
