<svg width="30" height="30" viewBox="0 0 30 30" fill="none" xmlns="http://www.w3.org/2000/svg">
<path fill-rule="evenodd" clip-rule="evenodd" d="M1.59473 14.0627C2.05473 7.39271 7.39223 2.05521 14.0622 1.59521V3.75021C14.0622 4.26771 14.4822 4.68771 14.9997 4.68771C15.5172 4.68771 15.9372 4.26771 15.9372 3.75021V1.59521C22.6072 2.05521 27.9447 7.39271 28.4047 14.0627H26.2497C25.7322 14.0627 25.3122 14.4827 25.3122 15.0002C25.3122 15.5177 25.7322 15.9377 26.2497 15.9377H28.4047C27.9447 22.6077 22.6072 27.9452 15.9372 28.4052V26.2502C15.9372 25.7327 15.5172 25.3127 14.9997 25.3127C14.4822 25.3127 14.0622 25.7327 14.0622 26.2502V28.4052C7.39223 27.9452 2.05473 22.6077 1.59473 15.9377H3.74973C4.26723 15.9377 4.68723 15.5177 4.68723 15.0002C4.68723 14.4827 4.26723 14.0627 3.74973 14.0627H1.59473ZM19.3747 16.5627V18.1252C19.3747 18.6427 19.7947 19.0627 20.3122 19.0627C20.8297 19.0627 21.2497 18.6427 21.2497 18.1252V11.8752C21.2497 11.3577 20.8297 10.9377 20.3122 10.9377C19.7947 10.9377 19.3747 11.3577 19.3747 11.8752V14.6877H17.8122C17.6397 14.6877 17.4997 14.5477 17.4997 14.3752V11.8752C17.4997 11.3577 17.0797 10.9377 16.5622 10.9377C16.0447 10.9377 15.6247 11.3577 15.6247 11.8752V14.3752C15.6247 15.584 16.6035 16.5627 17.8122 16.5627H19.3747ZM10.6247 13.854C10.6247 13.2927 11.0297 12.8127 11.5622 12.8127C12.0947 12.8127 12.4997 13.2927 12.4997 13.854C12.4997 13.9152 12.446 13.974 12.401 14.049C12.286 14.2452 12.1197 14.4527 11.9297 14.6652C10.8872 15.8265 9.14723 17.0465 9.14723 17.0465C8.81348 17.2815 8.66973 17.7065 8.79348 18.0952C8.91723 18.4852 9.27848 18.7502 9.68723 18.7502H13.4372C13.9547 18.7502 14.3747 18.3302 14.3747 17.8127C14.3747 17.2952 13.9547 16.8752 13.4372 16.8752H12.356C12.6997 16.5652 13.036 16.239 13.3247 15.9177C13.9885 15.179 14.3747 14.4102 14.3747 13.854C14.3747 12.2315 13.0997 10.9377 11.5622 10.9377C10.0247 10.9377 8.74973 12.2315 8.74973 13.854C8.74973 14.3715 9.16973 14.7915 9.68723 14.7915C10.2047 14.7915 10.6247 14.3715 10.6247 13.854Z" fill="#5A73A0"/>
</svg>
