<svg width="26" height="26" viewBox="0 0 26 26" fill="none" xmlns="http://www.w3.org/2000/svg">
<g clip-path="url(#clip0_1_700)">
<path d="M25.2113 8.7124L11.4683 22.4555C10.9684 22.9565 10.2909 23.2398 9.58326 23.2437C9.57691 23.2437 9.57062 23.2441 9.56432 23.2441C9.55802 23.2441 9.55168 23.2438 9.54538 23.2437C9.48551 23.2433 9.42569 23.2405 9.36592 23.2361C9.31852 23.2327 9.27113 23.228 9.22373 23.2219C9.16569 23.2146 9.1077 23.206 9.05011 23.1949C9.04503 23.1938 9.03995 23.1925 9.03487 23.1916C8.97541 23.1797 8.91645 23.1654 8.85775 23.1495C8.79986 23.1338 8.74232 23.1167 8.68535 23.097C8.68144 23.0956 8.67748 23.0946 8.67357 23.0932C8.6657 23.0905 8.65793 23.0872 8.65011 23.0844C8.53417 23.0428 8.42125 22.9932 8.31216 22.9361C8.25747 22.9073 8.20384 22.8759 8.15077 22.843C8.05114 22.7818 7.95564 22.7141 7.86488 22.6403C7.82963 22.6116 7.79495 22.5818 7.76082 22.551C7.7267 22.5202 7.69322 22.4884 7.66038 22.4555L0.78861 15.584C0.283667 15.0791 -4.76161e-06 14.3942 0 13.6801C4.76173e-06 12.966 0.283685 12.2812 0.788635 11.7762C1.29359 11.2713 1.97844 10.9876 2.69254 10.9876C3.40665 10.9876 4.0915 11.2713 4.59644 11.7762L9.56417 16.7439L21.4035 4.90452C21.6533 4.65325 21.9502 4.45373 22.2772 4.31741C22.6042 4.18109 22.9549 4.11065 23.3091 4.11011C23.6634 4.10957 24.0143 4.17896 24.3417 4.31429C24.6692 4.44962 24.9666 4.64824 25.2172 4.89876C25.4677 5.14927 25.6663 5.44677 25.8016 5.77418C25.9369 6.1016 26.0063 6.45251 26.0058 6.80679C26.0052 7.16107 25.9348 7.51176 25.7985 7.83876C25.6621 8.16577 25.4626 8.46265 25.2113 8.7124Z" fill="#5A73A0"/>
</g>
<defs>
<clipPath id="clip0_1_700">
<rect width="26" height="26" fill="white"/>
</clipPath>
</defs>
</svg>
