<svg width="38" height="38" viewBox="0 0 38 38" fill="none" xmlns="http://www.w3.org/2000/svg">
<path d="M11.875 28.5158C11.8681 29.6302 12.2176 30.7176 12.8725 31.6192C8.62917 31.35 4.75 29.7983 4.75 26.9325V25.5392C6.84898 27.007 9.31732 27.8572 11.875 27.9933V28.5158ZM11.9383 22.0717C11.9323 22.0779 11.9278 22.0854 11.9251 22.0936C11.9223 22.1019 11.9215 22.1106 11.9225 22.1192C11.891 22.2755 11.8751 22.4347 11.875 22.5942V25.6183C8.04333 25.175 4.75 23.655 4.75 21.0108V19.6175C6.85747 21.1036 9.34639 21.9552 11.9225 22.0717H11.9383ZM18.1133 16.2767C15.9996 16.8184 14.1239 18.0429 12.7775 19.76C8.56583 19.4908 4.75 17.9392 4.75 15.0892V14.0125C7.55336 15.8794 10.8873 16.7852 14.25 16.5933C15.5444 16.5981 16.8369 16.4921 18.1133 16.2767ZM23.75 14.0125V15.0892C23.748 15.2217 23.7374 15.3539 23.7183 15.485C22.5297 15.4847 21.3432 15.5853 20.1717 15.7858C21.4642 15.4221 22.6777 14.8207 23.75 14.0125ZM14.25 4.75C9.5 4.75 4.75 6.33333 4.75 9.48417C4.75 12.6667 9.5 14.2183 14.25 14.2183C19 14.2183 23.75 12.6667 23.75 9.48417C23.75 6.33333 19 4.75 14.25 4.75ZM23.75 29.7033C20.3694 29.8506 17.0333 28.8887 14.25 26.9642V28.5158C14.25 31.6667 19 33.25 23.75 33.25C28.5 33.25 33.25 31.6667 33.25 28.5158V26.9642C30.4667 28.8887 27.1306 29.8506 23.75 29.7033ZM23.75 17.86C18.5092 17.86 14.25 19.9817 14.25 22.5942C14.25 25.2067 18.5092 27.3283 23.75 27.3283C28.9908 27.3283 33.25 25.2067 33.25 22.5942C33.25 19.9817 28.9908 17.86 23.75 17.86Z" fill="#5A73A0"/>
</svg>
