<svg width="30" height="30" viewBox="0 0 30 30" fill="none" xmlns="http://www.w3.org/2000/svg">
<g clip-path="url(#clip0_1_693)">
<path d="M22.0898 0H7.91016C3.54141 0 0 3.54141 0 7.91016V22.0898C0 26.4586 3.54141 30 7.91016 30H22.0898C26.4586 30 30 26.4586 30 22.0898V7.91016C30 3.54141 26.4586 0 22.0898 0ZM15.8531 21.9961L15.0732 19.5006H10.66L9.88945 21.9961H6.44883L11.3484 8.63731H14.376L19.3119 21.9961H15.8531ZM23.4041 21.9961H20.3027V12.0686H23.4041V21.9961ZM23.0736 10.5914C22.7555 10.8727 22.3424 11.0133 21.835 11.0133C21.3275 11.0133 20.9145 10.8727 20.5963 10.5914C20.2781 10.3102 20.1193 9.94922 20.1193 9.50859C20.1193 9.06797 20.2781 8.70762 20.5963 8.42578C20.9145 8.14453 21.327 8.00391 21.835 8.00391C22.343 8.00391 22.7555 8.14453 23.0736 8.42578C23.3918 8.70703 23.5506 9.06797 23.5506 9.50859C23.5506 9.94922 23.3918 10.3102 23.0736 10.5914ZM12.8619 12.3803L14.3021 17.0139H11.4305L12.8619 12.3803Z" fill="#5A73A0"/>
</g>
<defs>
<clipPath id="clip0_1_693">
<rect width="30" height="30" fill="white"/>
</clipPath>
</defs>
</svg>
