<svg width="34" height="34" viewBox="0 0 34 34" fill="none" xmlns="http://www.w3.org/2000/svg">
<path d="M3.40002 17.8498C3.40002 16.4415 4.54169 15.2998 5.95002 15.2998C7.35836 15.2998 8.50002 16.4415 8.50002 17.8498V28.0498C8.50002 29.4581 7.35836 30.5998 5.95002 30.5998C4.54169 30.5998 3.40002 29.4581 3.40002 28.0498V17.8498Z" fill="#5A73A0"/>
<path d="M10.2001 17.5665V26.7985C10.2001 28.0865 10.9277 29.2637 12.0795 29.8397L12.1643 29.882C13.1085 30.3541 14.1497 30.5999 15.2053 30.5999H24.4128C26.0335 30.5999 27.4289 29.456 27.7468 27.8666L29.7868 17.6666C30.2075 15.5628 28.5983 13.5999 26.4528 13.5999H20.4001V6.7999C20.4001 4.92213 18.8779 3.3999 17.0001 3.3999C16.0612 3.3999 15.3001 4.16103 15.3001 5.0999V6.23324C15.3001 7.70456 14.8229 9.13618 13.9401 10.3132L11.5601 13.4866C10.6773 14.6636 10.2001 16.0952 10.2001 17.5665Z" fill="#5A73A0"/>
</svg>
