<svg width="122" height="126" viewBox="0 0 122 126" fill="none" xmlns="http://www.w3.org/2000/svg">
<g opacity="0.26">
<path d="M80.1313 20.4099C80.1417 20.4306 80.1624 20.4738 80.1728 20.4946C84.3279 22.1355 88.4641 23.8266 92.5607 25.6146C85.1064 36.8836 77.6777 48.1716 70.2978 59.4872C68.5547 62.1605 66.7495 64.7906 65.0185 67.4691C60.5728 62.9422 56.0389 58.5051 51.5656 54.0091C50.3689 52.8592 49.2553 51.6141 47.9914 50.5421C44.5574 55.1452 41.1819 59.7914 37.7634 64.4049C33.9471 69.6028 30.2052 74.8526 26.3473 80.0193C22.1887 85.7048 18.018 91.3783 13.8506 97.0567C10.4978 101.689 7.02391 106.235 3.7334 110.912C5.28271 109.675 6.6609 108.234 8.16348 106.937C17.4785 98.3259 26.8194 89.7424 36.0947 81.0897C40.3241 77.2129 44.5295 73.3101 48.7124 69.3849C49.1602 69.793 49.5407 70.2651 49.9401 70.7183C54.1298 75.6013 58.3801 80.4309 62.5543 85.3279C65.8967 81.7293 69.1804 78.0739 72.4711 74.4289C76.1386 70.4761 79.642 66.3727 83.2714 62.3852C87.9038 57.2236 92.5052 52.0326 97.1272 46.8607C100.601 43.0183 103.957 39.0639 107.539 35.3218C110.61 38.609 113.632 41.9411 116.622 45.3008C116.857 42.5652 117.196 39.8383 117.493 37.1079C118.385 28.7403 119.314 20.3763 120.151 12.0022C120.625 8.00782 121.021 4.00309 121.417 0C107.708 6.90981 93.8728 13.5671 80.1311 20.4094L80.1313 20.4099Z" fill="#D9E1EF"/>
<path d="M119.829 102.952C119.921 101.693 119.9 100.425 119.854 99.1647C119.838 98.001 119.067 96.9946 118.161 96.3375C118.878 95.843 119.71 95.2498 119.835 94.3178C119.874 93.0503 119.838 91.7792 119.855 90.512C119.906 89.3967 119.188 88.4163 118.355 87.7504C119.027 87.3043 119.71 86.6991 119.83 85.857C119.89 84.5843 119.812 83.3081 119.883 82.0356C119.892 80.813 119.038 79.8153 118.124 79.1046C118.852 78.6517 119.639 78.0533 119.8 77.154C119.864 76.2514 119.816 75.3453 119.824 74.4411C119.797 73.5989 119.947 72.6895 119.485 71.9304C118.685 70.5471 117.177 69.7915 115.749 69.2156C112.475 68.0085 109 67.49 105.545 67.1267C101.569 66.7861 97.5645 66.6787 93.5857 67.0004C89.6621 67.291 85.711 67.7923 81.9795 69.0893C80.8676 69.5043 79.7611 70.0023 78.8377 70.7633C78.1011 71.3581 77.5495 72.2606 77.5927 73.2343C77.617 74.557 77.558 75.8832 77.6219 77.2062C77.8606 78.0932 78.6595 78.6812 79.4134 79.1308C78.44 79.774 77.5044 80.796 77.5719 82.0392C77.5735 83.1995 77.5719 84.3579 77.5806 85.5183C77.5304 86.5039 78.3277 87.2925 79.1179 87.761C78.3676 88.3629 77.6118 89.1548 77.5565 90.1681C77.5341 91.4408 77.5653 92.7151 77.5705 93.9878C77.5325 95.0513 78.4315 95.8432 79.2824 96.324C78.8328 96.7614 78.3539 97.1678 77.9526 97.6538C77.3923 96.8237 76.5072 96.312 75.6459 95.852C73.794 94.9319 71.771 94.4218 69.7512 94.0293C61.932 92.6183 53.8567 92.5076 46.0218 93.8582C43.3502 94.3751 40.5993 94.9475 38.2682 96.4208C37.2497 97.0467 36.316 98.0739 36.3176 99.3344C36.316 100.614 36.3141 101.894 36.3349 103.171C36.532 104.145 37.419 104.719 38.1575 105.279C37.1926 105.85 36.3247 106.813 36.3108 107.992C36.3073 109.26 36.2917 110.531 36.3212 111.798C36.451 112.698 37.2153 113.302 37.8965 113.818C37.6059 114.038 37.3309 114.276 37.0647 114.527C36.4527 113.937 35.6641 113.59 34.8878 113.272C33.2485 112.62 31.5314 112.18 29.7954 111.878C25.2806 111.081 20.6756 110.928 16.1004 111.082C12.6144 111.278 9.10584 111.629 5.74783 112.628C4.18978 113.076 2.62677 113.656 1.3437 114.676C0.587933 115.267 0.0122648 116.163 0.0106126 117.148C-0.00142504 118.296 -0.00142205 119.446 0.00188239 120.596C0.00542286 121.374 0.562214 121.999 1.13435 122.459C2.14079 123.245 3.34242 123.735 4.54594 124.131C7.06699 124.947 9.69899 125.339 12.322 125.656C18.7666 126.27 25.3219 126.109 31.673 124.793C33.8794 124.255 36.1895 123.664 37.9861 122.201C38.9527 122.868 40.0734 123.254 41.1782 123.627C43.5386 124.38 45.9907 124.814 48.4442 125.123C51.7175 125.521 55.0167 125.702 58.3143 125.658C63.3099 125.514 68.3572 125.184 73.1869 123.809C74.9696 123.268 76.8267 122.633 78.191 121.307C78.9277 122 79.8302 122.49 80.7552 122.884C82.538 123.647 84.4402 124.074 86.3353 124.454C90.8347 125.269 95.4203 125.533 99.9887 125.483C104.692 125.384 109.428 125.023 113.992 123.818C115.501 123.389 117.016 122.882 118.347 122.033C118.987 121.61 119.658 121.062 119.827 120.276C119.883 119.005 119.833 117.731 119.847 116.46C119.892 115.324 119.137 114.349 118.301 113.662C118.982 113.147 119.81 112.554 119.854 111.615C119.924 110.469 119.881 109.317 119.874 108.169C119.907 106.87 119.029 105.763 118.029 105.034C118.813 104.548 119.653 103.917 119.829 102.952V102.952ZM36.0632 117.508C35.7502 118.212 35.0396 118.633 34.3808 118.976C32.0084 120.055 29.4043 120.435 26.8469 120.8C21.5107 121.392 16.0933 121.452 10.7744 120.658C8.5592 120.344 6.32516 119.925 4.27617 118.992C3.61741 118.646 2.8739 118.238 2.60742 117.496C2.48987 117.108 2.74741 116.751 3.0035 116.489C3.72623 115.832 4.65665 115.478 5.56608 115.166C8.73055 114.132 12.0626 113.773 15.367 113.52C19.5309 113.28 23.731 113.36 27.8621 113.977C30.2776 114.352 32.7279 114.848 34.9206 115.972C35.455 116.306 36.2863 116.742 36.0632 117.508ZM116.246 100.699C113.9 101.975 111.214 102.414 108.609 102.834C103.577 103.517 98.4774 103.649 93.411 103.343C91.4951 103.189 89.5774 103.021 87.6875 102.663C85.6402 102.285 83.5496 101.908 81.663 100.986C81.0699 100.67 80.4267 100.303 80.1137 99.6804C79.9287 99.3502 80.0757 98.9489 80.316 98.6931C80.7812 98.1898 81.3932 97.858 82.0003 97.5535C85.3583 98.6447 88.8877 99.0908 92.3944 99.3882C97.6806 99.7566 103.006 99.6927 108.27 99.0528C110.672 98.6931 113.103 98.3317 115.398 97.5068C116.108 97.9269 116.98 98.285 117.35 99.0769C117.568 99.8274 116.815 100.375 116.247 100.699L116.246 100.699ZM116.43 109.394C115.152 110.16 113.691 110.536 112.262 110.914C107.237 112.068 102.055 112.351 96.9144 112.239C93.8677 112.178 90.8227 111.922 87.8138 111.452C85.5918 111.03 83.3023 110.638 81.2913 109.554C80.7432 109.191 79.9874 108.72 80.0601 107.971C80.3696 107.05 81.3621 106.647 82.1627 106.244C84.5091 107.02 86.9664 107.411 89.4096 107.747C95.3165 108.497 101.31 108.457 107.225 107.823C109.072 107.641 110.896 107.301 112.715 106.944C113.561 106.75 114.405 106.536 115.207 106.199C115.999 106.681 116.974 107.083 117.372 107.989C117.462 108.616 116.907 109.09 116.43 109.394ZM80.0377 73.2203C80.4182 72.3333 81.364 71.8941 82.1941 71.5188C85.1008 70.3724 88.2219 69.9263 91.3103 69.5786C92.7006 69.416 94.096 69.3296 95.493 69.2536C99.676 69.027 103.879 69.2432 108.028 69.8121C109.878 70.049 111.714 70.412 113.502 70.9497C114.626 71.299 115.778 71.6708 116.731 72.3883C117.084 72.6702 117.445 73.0903 117.362 73.5779C117.02 74.4616 116.077 74.8662 115.28 75.2431C112.681 76.3359 109.863 76.7249 107.089 77.0969C103.755 77.5241 100.387 77.5602 97.0287 77.5274C92.6694 77.4479 88.2792 77.0622 84.0616 75.9038C82.8805 75.5457 81.6564 75.1723 80.6759 74.3944C80.337 74.1003 79.9339 73.7129 80.0377 73.2203ZM39.0995 98.8172C39.978 97.9076 41.2281 97.5065 42.3936 97.1072C46.7321 95.8154 51.2832 95.4611 55.786 95.2829C59.6316 95.2102 63.4893 95.4021 67.2901 96.0075C69.692 96.3656 72.1024 96.8669 74.3279 97.863C75.0039 98.188 75.7596 98.5909 76.0223 99.3447C76.1123 99.7772 75.7957 100.166 75.4967 100.439C74.6493 101.127 73.6101 101.52 72.5796 101.843C69.2527 102.905 65.7581 103.27 62.2929 103.536C59.6387 103.662 56.981 103.751 54.3266 103.611C50.391 103.486 46.4347 103.064 42.6341 101.999C41.4218 101.606 40.1163 101.224 39.1913 100.304C38.7693 99.9275 38.6553 99.2185 39.0997 98.8175L39.0995 98.8172ZM38.9303 107.816C39.3712 107.122 40.1598 106.78 40.8617 106.415C43.8652 107.422 47.0245 107.871 50.1663 108.193C55.9262 108.743 61.7448 108.57 67.4787 107.821C69.6436 107.527 71.7965 107.109 73.8818 106.455C74.6685 106.808 75.5298 107.223 75.9827 107.994C76.261 108.758 75.4707 109.367 74.8727 109.678C72.3601 110.944 69.5449 111.409 66.7888 111.819C60.5725 112.621 54.2558 112.61 48.0394 111.819C46.1028 111.563 44.1765 111.191 42.302 110.634C41.2436 110.286 40.1683 109.887 39.2985 109.171C38.9043 108.862 38.6345 108.279 38.9303 107.816ZM75.1613 117.9C73.6984 118.743 72.0523 119.197 70.4234 119.59C67.2989 120.28 64.1035 120.634 60.9078 120.74C58.7774 120.869 56.6369 120.864 54.5065 120.749C51.7916 120.683 49.0787 120.427 46.3983 119.984C44.5636 119.652 42.729 119.26 40.9913 118.573C40.2615 118.267 39.5163 117.892 39.0219 117.256C38.8005 116.987 38.7417 116.576 38.9284 116.279C39.2518 115.654 39.9313 115.362 40.502 115.015C42.8968 115.867 45.4197 116.296 47.9306 116.652C51.3646 117.117 54.8369 117.249 58.2988 117.252C61.1276 117.112 63.9583 116.989 66.768 116.609C67.4164 116.597 68.0096 116.298 68.6631 116.306C68.0839 116.621 67.4233 116.547 66.794 116.657C64.3869 117.021 61.9591 117.24 59.5247 117.271C58.6566 117.218 57.7903 117.977 57.9442 118.881C58.003 119.654 58.7796 120.181 59.5195 120.124C64.0655 119.955 68.6478 119.521 73.0174 118.193C73.9167 117.984 74.2729 116.78 73.7489 116.062C73.5811 115.791 73.2941 115.637 73.0399 115.466C73.4928 115.362 73.9304 115.198 74.3626 115.03C74.9885 115.417 75.7719 115.743 76.0674 116.47C76.2301 117.108 75.635 117.593 75.1613 117.9ZM77.9316 114.748C77.6706 114.435 77.38 114.151 77.0722 113.889C77.4855 113.605 77.8485 113.261 78.1719 112.879C78.5089 113.134 78.8446 113.392 79.1731 113.664C78.7011 113.954 78.3154 114.353 77.9316 114.748V114.748ZM77.9505 106.401C77.5872 105.973 77.1532 105.616 76.6917 105.305C77.2157 104.928 77.7362 104.537 78.1684 104.053C78.5505 104.456 79.0294 104.739 79.4946 105.035C78.9361 105.438 78.4034 105.879 77.9505 106.401ZM80.214 81.6415C80.7033 80.9879 81.4851 80.6681 82.187 80.2996C85.2356 81.2473 88.3998 81.7798 91.5782 82.0512C96.1813 82.4697 100.824 82.468 105.431 82.0788C108.773 81.7399 112.161 81.3769 115.363 80.3098C116.101 80.6987 116.928 81.0965 117.351 81.8591C117.523 82.4367 117.082 82.9918 116.637 83.3097C115.562 84.024 114.325 84.4474 113.085 84.7762C109.829 85.6752 106.454 86.0246 103.093 86.2424C100.044 86.4119 96.9885 86.3739 93.9399 86.225C90.1963 85.95 86.4042 85.561 82.8387 84.3159C81.8738 83.9286 80.8001 83.5465 80.1687 82.6682C79.9232 82.3708 79.9716 81.923 80.2138 81.641L80.214 81.6415ZM80.2832 90.0314C80.6981 89.5785 81.229 89.2049 81.8153 89.013C84.895 90.0314 88.1147 90.5918 91.3448 90.8561C94.3447 91.1691 97.3622 91.2227 100.376 91.1587C101.749 91.1759 103.114 91.0256 104.485 90.972C105.202 90.7974 105.939 90.7541 106.676 90.761C106.181 90.8682 105.692 91.0272 105.178 90.96C103.543 91.0775 101.905 91.2642 100.262 91.285C99.8889 91.5928 99.396 91.8885 99.3821 92.4366C99.1919 93.3687 100.093 94.2297 101.013 94.0862C105.083 93.8908 109.172 93.5001 113.138 92.5265C113.872 92.2914 114.886 92.2204 115.19 91.3801C115.498 90.659 115.15 89.874 114.5 89.4919C114.962 89.3467 115.413 89.1649 115.868 88.9938C116.402 89.3984 117.035 89.7392 117.365 90.3496C117.526 91.1363 116.802 91.707 116.186 92.0356C114.372 93.0038 112.335 93.4518 110.335 93.8547C104.468 94.8731 98.4675 94.9666 92.5382 94.5481C89.2684 94.23 85.9536 93.891 82.8375 92.7913C81.871 92.404 80.7989 92.015 80.173 91.133C79.9084 90.7924 80.0035 90.3255 80.2836 90.0317L80.2832 90.0314ZM116.682 117.624C115.506 118.423 114.118 118.829 112.764 119.213C107.747 120.454 102.553 120.762 97.4018 120.698C92.7572 120.508 88.0557 120.226 83.5772 118.89C82.4636 118.54 81.2877 118.165 80.4439 117.319C80.1985 117.051 79.9114 116.671 80.079 116.294C80.3852 115.554 81.1442 115.167 81.8117 114.807C83.3247 115.464 84.9762 115.717 86.5807 116.066C91.5088 116.915 96.5337 117.214 101.529 116.963C103.77 116.977 105.996 116.716 108.218 116.453C109.051 116.393 109.85 116.113 110.694 116.185C107.486 116.619 104.27 117.152 101.023 117.081C100.157 117.024 99.2832 117.811 99.3991 118.705C99.4355 119.509 100.231 120.115 101.019 119.989C105.47 119.797 109.959 119.398 114.244 118.115C114.908 117.97 115.349 117.288 115.273 116.626C115.262 116.017 114.778 115.618 114.296 115.343C114.74 115.208 115.174 115.042 115.592 114.838C116.215 115.173 116.862 115.544 117.273 116.137C117.64 116.69 117.121 117.302 116.682 117.624H116.682Z" fill="#D9E1EF"/>
<path d="M59.3412 111.712C63.9738 111.542 68.651 111.112 73.1106 109.787C73.7781 109.594 74.0823 108.812 73.9579 108.174C73.8281 107.387 72.9135 106.83 72.1596 107.131C67.9007 108.402 63.4326 108.748 59.0129 108.924C58.534 109.026 58.1363 109.426 58.0152 109.898C57.7525 110.756 58.4075 111.758 59.3412 111.712Z" fill="#D9E1EF"/>
<path d="M113.644 106.956C109.885 108.096 105.949 108.447 102.048 108.717C101.255 108.789 100.257 108.521 99.7002 109.267C98.91 110.114 99.6777 111.7 100.838 111.572C105.327 111.421 109.835 110.925 114.175 109.737C114.827 109.623 115.333 108.994 115.277 108.33C115.315 107.505 114.467 106.714 113.644 106.956Z" fill="#D9E1EF"/>
<path d="M100.656 85.6411C105.199 85.5426 109.772 85.0739 114.147 83.8047C114.751 83.6853 115.238 83.1719 115.262 82.546C115.423 81.6797 114.524 80.7616 113.656 81.021C112.267 81.4654 110.841 81.7697 109.406 82.0118C106.513 82.4648 103.592 82.7676 100.665 82.8228C100.04 82.8264 99.4959 83.3624 99.392 83.9608C99.219 84.7458 99.8225 85.6415 100.656 85.6415L100.656 85.6411Z" fill="#D9E1EF"/>
<path d="M113.652 98.1638C109.435 99.3846 105.031 99.8134 100.656 99.9362C99.9003 99.9465 99.3141 100.68 99.3556 101.415C99.3556 102.179 100.071 102.855 100.844 102.77C105.328 102.601 109.852 102.22 114.178 100.962C114.842 100.835 115.354 100.209 115.28 99.5248C115.318 98.7034 114.45 97.9391 113.652 98.1638Z" fill="#D9E1EF"/>
<path d="M59.346 102.95C61.5489 102.941 63.7468 102.729 65.9341 102.483C68.2737 102.193 70.6099 101.79 72.8664 101.098C73.4959 100.948 74.0076 100.362 73.9523 99.6976C73.9766 98.7674 72.9147 98.0324 72.0589 98.4318C67.8535 99.6665 63.4407 99.9707 59.0833 100.154C58.5456 100.244 58.1047 100.687 57.9853 101.216C57.7415 102.048 58.4659 103.011 59.346 102.95Z" fill="#D9E1EF"/>
<path d="M33.9827 116.238C33.5193 115.9 32.9399 116.024 32.4437 116.211C28.6585 117.259 24.7213 117.736 20.7977 117.777C19.8727 117.807 19.2692 118.913 19.6062 119.74C19.7965 120.288 20.3877 120.637 20.9601 120.587C25.2814 120.487 29.618 119.979 33.7785 118.77C34.8522 118.429 34.9317 116.781 33.9827 116.238Z" fill="#D9E1EF"/>
<path d="M100.857 76.8326C105.304 76.7203 109.779 76.2586 114.078 75.0603C114.77 74.922 115.347 74.2941 115.28 73.5645C115.32 72.6964 114.358 71.9461 113.535 72.2954C109.316 73.5336 104.891 73.8775 100.516 74.0298C99.785 74.1353 99.2662 74.9168 99.3908 75.6343C99.46 76.3485 100.134 76.9209 100.857 76.8326Z" fill="#D9E1EF"/>
</g>
</svg>
