<svg width="145" height="130" viewBox="0 0 145 130" fill="none" xmlns="http://www.w3.org/2000/svg">
<path d="M132.066 47.4489C122.46 17.7743 92.4986 -2.52738 61.3634 0.254529C19.9892 3.11562 -9.54702 44.9348 2.85773 84.7338C4.35623 89.6992 6.38882 94.3127 8.8666 98.5453C11.4864 96.8521 15.91 93.6603 15.91 93.6603C13.5442 88.7415 11.8458 83.326 10.9685 77.4705C5.78056 43.4704 34.6871 12.3702 69.0958 16.6154C88.4611 18.6431 105.816 32.9007 111.393 51.5382L99.9444 53.8022L128.117 75.5093L144.519 44.9862L132.067 47.4488L132.066 47.4489Z" fill="#323232"/>
<path d="M100.77 114.234C77.7165 130.964 47.9427 127.711 28.9746 110.925H18.3662C40.2256 133.026 76.9547 137.253 103.035 114.953C110.824 108.246 116.885 99.5008 120.382 89.8389C116.161 99.5285 109.346 108.058 100.77 114.234Z" fill="#323232"/>
<path d="M34.8989 79.1734L15.9436 97.0043V108.482H49.9943V98.9535H28.3506L43.1705 85.5984C44.0891 84.732 44.9388 83.8421 45.7208 82.9275C46.5016 82.0136 47.1791 81.0143 47.7542 79.9314C48.3282 78.8486 48.7763 77.6461 49.0982 76.322C49.4191 74.999 49.5807 73.5189 49.5807 71.8822C49.5807 69.3319 49.1779 67.0941 48.3744 65.1686C47.5698 63.2443 46.4553 61.6437 45.0314 60.368C43.6066 59.0934 41.9297 58.1301 39.9996 57.4804C38.0698 56.8308 36.0018 56.5059 33.796 56.5059C31.4061 56.5059 29.1885 56.8307 27.1445 57.4804C25.0993 58.1301 23.3191 59.1047 21.8025 60.4042C20.2861 61.7037 19.0681 63.3279 18.1494 65.2771C17.2296 67.2263 16.702 69.525 16.5641 72.1712L26.9034 72.9653C27.0412 71.1368 27.6498 69.5972 28.7301 68.345C29.8094 67.0943 31.315 66.4681 33.2449 66.4681C34.8528 66.4681 36.2541 66.9622 37.4496 67.948C38.6439 68.935 39.2417 70.294 39.2417 72.0267C39.2417 73.5675 38.7592 74.9143 37.7943 76.0692C36.8292 77.2243 35.8643 78.2599 34.8991 79.1734H34.8989Z" fill="#323232"/>
<path d="M70.9497 57.3718L51.0293 87.7261V96.8218H72.3283V108.482H82.2539V96.8218H88.5264V87.7261H82.2539V57.3718H70.9497ZM72.3281 87.7263H61.3685L72.1903 71.5212H72.3281V87.7263Z" fill="#323232"/>
<path d="M86.0908 47.2925V67.6475H89.947V61.1317C89.947 60.7009 89.9727 60.2882 90.0241 59.8933C90.0755 59.4986 90.1823 59.1441 90.3455 58.8298C90.5081 58.516 90.744 58.2643 91.0524 58.0758C91.3609 57.8873 91.7636 57.7931 92.2608 57.7931C92.758 57.7931 93.1389 57.9008 93.4049 58.1162C93.6704 58.3316 93.8676 58.61 93.9962 58.9508C94.1247 59.292 94.2019 59.6644 94.2276 60.0683C94.2533 60.4721 94.2661 60.8625 94.2661 61.2395V67.6475H98.1224V60.4317C98.1224 59.5524 98.0622 58.7354 97.9424 57.9815C97.8224 57.2275 97.5953 56.5726 97.2611 56.016C96.9269 55.46 96.4598 55.0245 95.8601 54.7103C95.2601 54.3965 94.4718 54.2391 93.4949 54.2391C93.0323 54.2391 92.6035 54.3023 92.2094 54.4275C91.8149 54.5534 91.4724 54.7148 91.1812 54.9123C90.8895 55.11 90.6413 55.3342 90.4355 55.5854C90.2298 55.837 90.0841 56.0881 89.9986 56.3394H89.9472V47.2926H86.091L86.0908 47.2925Z" fill="#323232"/>
</svg>
