<svg width="31" height="31" viewBox="0 0 31 31" fill="none" xmlns="http://www.w3.org/2000/svg">
<g clip-path="url(#clip0_1_613)">
<path d="M15.2783 30.1462C23.5626 30.1462 30.2783 23.4305 30.2783 15.1462C30.2783 6.86197 23.5626 0.14624 15.2783 0.14624C6.99405 0.14624 0.27832 6.86197 0.27832 15.1462C0.27832 23.4305 6.99405 30.1462 15.2783 30.1462Z" fill="white"/>
<path d="M24.8202 12.6975C23.3965 8.29959 18.956 5.29071 14.3416 5.703C8.20961 6.12703 3.83213 12.3249 5.67061 18.2234C5.89267 18.9593 6.19393 19.6431 6.56114 20.2704C6.9494 20.0194 7.60501 19.5464 7.60501 19.5464C7.25439 18.8174 7.00267 18.0147 6.87263 17.1469C6.10374 12.1079 10.3879 7.49862 15.4875 8.12777C18.3575 8.42829 20.9297 10.5414 21.7562 13.3036L20.0595 13.6391L24.2348 16.8563L26.6658 12.3326L24.8202 12.6975L24.8202 12.6975Z" fill="#474848"/>
<path d="M20.1816 22.5957C16.7649 25.0753 12.3522 24.5931 9.541 22.1053H7.96875C11.2084 25.3808 16.652 26.0073 20.5173 22.7023C21.6717 21.7083 22.5698 20.4122 23.0882 18.9802C22.4625 20.4163 21.4526 21.6804 20.1816 22.5957Z" fill="#474848"/>
<path d="M10.4197 17.3993L7.61035 20.0419V21.7431H12.6569V20.3308H9.44918L11.6456 18.3515C11.7818 18.2231 11.9077 18.0912 12.0236 17.9556C12.1393 17.8202 12.2397 17.6721 12.3249 17.5116C12.41 17.3511 12.4764 17.1729 12.5241 16.9767C12.5717 16.7806 12.5956 16.5613 12.5956 16.3187C12.5956 15.9407 12.5359 15.609 12.4168 15.3237C12.2976 15.0385 12.1324 14.8013 11.9213 14.6122C11.7102 14.4233 11.4617 14.2805 11.1756 14.1842C10.8896 14.088 10.5831 14.0398 10.2562 14.0398C9.90199 14.0398 9.57336 14.0879 9.27037 14.1842C8.96725 14.2805 8.70341 14.425 8.47864 14.6175C8.25391 14.8101 8.07338 15.0508 7.93723 15.3397C7.8009 15.6286 7.72268 15.9693 7.70227 16.3615L9.2346 16.4792C9.25505 16.2082 9.34521 15.98 9.50533 15.7944C9.66527 15.6091 9.88842 15.5163 10.1745 15.5163C10.4128 15.5163 10.6205 15.5895 10.7976 15.7356C10.9746 15.8819 11.0632 16.0833 11.0632 16.3401C11.0632 16.5685 10.9917 16.7681 10.8487 16.9393C10.7056 17.1104 10.5626 17.2639 10.4196 17.3993L10.4197 17.3993Z" fill="#474848"/>
<path d="M15.7619 14.1685L12.8096 18.6672V20.0152H15.9662V21.7434H17.4373V20.0152H18.3669V18.6672H17.4373V14.1685H15.7619ZM15.9662 18.6672H14.3419L15.9458 16.2655H15.9662V18.6672Z" fill="#474848"/>
<path d="M18.0068 12.6743V15.6911H18.5784V14.7254C18.5784 14.6616 18.5822 14.6004 18.5898 14.5419C18.5974 14.4834 18.6132 14.4308 18.6374 14.3842C18.6615 14.3377 18.6965 14.3004 18.7422 14.2725C18.788 14.2446 18.8476 14.2306 18.9213 14.2306C18.995 14.2306 19.0514 14.2466 19.0909 14.2785C19.1302 14.3104 19.1595 14.3517 19.1785 14.4022C19.1975 14.4527 19.209 14.5079 19.2128 14.5678C19.2166 14.6277 19.2185 14.6855 19.2185 14.7414V15.6911H19.79V14.6217C19.79 14.4914 19.7811 14.3703 19.7634 14.2585C19.7456 14.1468 19.7119 14.0497 19.6624 13.9672C19.6129 13.8848 19.5436 13.8203 19.4547 13.7737C19.3658 13.7272 19.249 13.7039 19.1042 13.7039C19.0356 13.7039 18.9721 13.7132 18.9137 13.7318C18.8552 13.7504 18.8045 13.7744 18.7613 13.8036C18.7181 13.8329 18.6813 13.8662 18.6508 13.9034C18.6204 13.9407 18.5987 13.9779 18.5861 14.0151H18.5784V12.6743H18.0069H18.0068Z" fill="#474848"/>
</g>
<defs>
<clipPath id="clip0_1_613">
<rect width="30.5927" height="30.5927" fill="white"/>
</clipPath>
</defs>
</svg>
