<svg width="29" height="30" viewBox="0 0 29 30" fill="none" xmlns="http://www.w3.org/2000/svg">
<path d="M18.7863 4.78505C18.7888 4.78992 18.7936 4.80005 18.7961 4.80492C19.7702 5.18962 20.74 5.58611 21.7004 6.00529C19.9527 8.6473 18.2111 11.2937 16.4809 13.9467C16.0722 14.5734 15.649 15.19 15.2432 15.818C14.2009 14.7567 13.1379 13.7164 12.0892 12.6623C11.8086 12.3927 11.5475 12.1008 11.2512 11.8495C10.4461 12.9287 9.65473 14.018 8.85328 15.0996C7.95853 16.3182 7.08127 17.549 6.17679 18.7604C5.2018 20.0933 4.224 21.4235 3.24697 22.7548C2.46091 23.8408 1.64645 24.9066 0.875 26.0032C1.23823 25.713 1.56135 25.3753 1.91362 25.0712C4.0975 23.0523 6.28746 21.0399 8.46204 19.0113C9.45363 18.1024 10.4396 17.1874 11.4203 16.2672C11.5252 16.3628 11.6144 16.4735 11.7081 16.5798C12.6904 17.7246 13.6868 18.8569 14.6654 20.005C15.4491 19.1613 16.2189 18.3043 16.9904 17.4497C17.8503 16.523 18.6716 15.561 19.5225 14.6261C20.6086 13.416 21.6874 12.1989 22.771 10.9864C23.5854 10.0856 24.3723 9.15845 25.2119 8.28114C25.9319 9.05182 26.6405 9.83301 27.3414 10.6207C27.3966 9.97932 27.476 9.34001 27.5458 8.69987C27.7549 6.73812 27.9726 4.77719 28.1688 2.81389C28.2799 1.87742 28.3728 0.938517 28.4656 0C25.2516 1.61999 22.008 3.18077 18.7863 4.78494L18.7863 4.78505Z" fill="#5A73A0"/>
<path d="M28.0937 24.137C28.1152 23.8418 28.1103 23.5447 28.0994 23.2491C28.0958 22.9763 27.915 22.7404 27.7026 22.5863C27.8708 22.4704 28.0658 22.3313 28.095 22.1128C28.1043 21.8156 28.0958 21.5176 28.0999 21.2205C28.1117 20.9591 27.9434 20.7292 27.748 20.5731C27.9057 20.4685 28.0659 20.3266 28.0938 20.1292C28.108 19.8308 28.0898 19.5316 28.1064 19.2333C28.1084 18.9466 27.9081 18.7127 27.694 18.5461C27.8647 18.4399 28.0491 18.2996 28.0869 18.0888C28.1019 17.8772 28.0905 17.6647 28.0926 17.4527C28.0861 17.2553 28.1214 17.0421 28.0131 16.8641C27.8254 16.5398 27.4719 16.3627 27.137 16.2276C26.3696 15.9446 25.5548 15.8231 24.7447 15.7379C23.8128 15.658 22.8738 15.6329 21.941 15.7083C21.0211 15.7764 20.0948 15.894 19.2199 16.198C18.9593 16.2953 18.6998 16.4121 18.4834 16.5905C18.3106 16.7299 18.1813 16.9415 18.1915 17.1698C18.1971 17.4799 18.1833 17.7908 18.1983 18.101C18.2543 18.309 18.4416 18.4468 18.6183 18.5522C18.3901 18.703 18.1708 18.9426 18.1866 19.2341C18.187 19.5061 18.1866 19.7777 18.1886 20.0498C18.1768 20.2809 18.3638 20.4657 18.549 20.5756C18.3731 20.7167 18.1959 20.9023 18.183 21.1399C18.1777 21.4383 18.185 21.737 18.1862 22.0354C18.1773 22.2848 18.3881 22.4704 18.5876 22.5832C18.4822 22.6857 18.3699 22.781 18.2758 22.8949C18.1445 22.7003 17.937 22.5803 17.735 22.4725C17.3009 22.2568 16.8266 22.1372 16.353 22.0452C14.5198 21.7144 12.6266 21.6884 10.7897 22.005C10.1634 22.1262 9.51842 22.2604 8.97191 22.6058C8.73313 22.7526 8.51422 22.9934 8.5146 23.2889C8.51422 23.5889 8.51377 23.8889 8.51864 24.1885C8.56485 24.4167 8.77281 24.5513 8.94596 24.6827C8.71974 24.8165 8.51627 25.0423 8.513 25.3188C8.51217 25.616 8.50852 25.9139 8.51543 26.211C8.54587 26.4219 8.72505 26.5637 8.88475 26.6846C8.81663 26.7361 8.75217 26.792 8.68975 26.8508C8.54626 26.7126 8.36137 26.6311 8.17937 26.5565C7.79506 26.4036 7.39248 26.3006 6.98548 26.2297C5.92699 26.0428 4.84736 26.0071 3.7747 26.0432C2.95743 26.089 2.13485 26.1713 1.34757 26.4057C0.982287 26.5106 0.615841 26.6465 0.315029 26.8857C0.13784 27.0243 0.00287545 27.2343 0.00248809 27.4654C-0.000334098 27.7345 -0.000333396 28.0041 0.000441323 28.2737C0.00127138 28.4562 0.13181 28.6025 0.265947 28.7103C0.501904 28.8948 0.783624 29.0096 1.06579 29.1024C1.65684 29.2937 2.27391 29.3857 2.88887 29.4599C4.3998 29.6039 5.93667 29.5661 7.42568 29.2576C7.94297 29.1316 8.48455 28.9929 8.90578 28.6499C9.13238 28.8064 9.39513 28.8968 9.65416 28.9844C10.2075 29.1607 10.7824 29.2625 11.3577 29.335C12.1251 29.4283 12.8986 29.4708 13.6717 29.4603C14.8429 29.4267 16.0262 29.3493 17.1585 29.027C17.5765 28.9001 18.0119 28.7513 18.3317 28.4404C18.5044 28.6029 18.716 28.7177 18.9329 28.8101C19.3509 28.9889 19.7968 29.089 20.2411 29.1782C21.296 29.3691 22.3711 29.4311 23.4422 29.4194C24.5449 29.3963 25.6553 29.3115 26.7251 29.029C27.079 28.9284 27.4341 28.8097 27.7463 28.6106C27.8963 28.5113 28.0536 28.3828 28.0933 28.1988C28.1062 27.9008 28.0945 27.602 28.0978 27.3041C28.1084 27.0377 27.9315 26.8091 27.7354 26.6481C27.8951 26.5273 28.0893 26.3882 28.0994 26.1681C28.116 25.8993 28.1059 25.6293 28.1043 25.3601C28.112 25.0557 27.9061 24.7962 27.6717 24.6251C27.8554 24.5112 28.0524 24.3632 28.0937 24.137V24.137ZM8.45495 27.5497C8.38157 27.7147 8.21496 27.8136 8.06051 27.8938C7.50432 28.1468 6.89378 28.236 6.2942 28.3215C5.04314 28.4602 3.77305 28.4744 2.52603 28.2883C2.00669 28.2145 1.48292 28.1164 1.00254 27.8975C0.848095 27.8164 0.67378 27.7208 0.611304 27.5468C0.583746 27.456 0.644124 27.3721 0.704165 27.3109C0.873607 27.1568 1.09174 27.0737 1.30496 27.0007C2.04686 26.7583 2.82806 26.6739 3.60278 26.6148C4.57898 26.5585 5.5637 26.5771 6.53221 26.7218C7.09853 26.8098 7.67298 26.9261 8.18707 27.1896C8.31235 27.2679 8.50724 27.37 8.45495 27.5497ZM27.2537 23.6088C26.7036 23.908 26.074 24.0109 25.4631 24.1095C24.2833 24.2696 23.0878 24.3004 21.9 24.2287C21.4509 24.1926 21.0012 24.1532 20.5582 24.0693C20.0782 23.9806 19.588 23.8922 19.1457 23.6761C19.0067 23.602 18.8559 23.516 18.7825 23.37C18.7391 23.2926 18.7736 23.1986 18.8299 23.1386C18.939 23.0206 19.0825 22.9428 19.2248 22.8714C20.0121 23.1272 20.8396 23.2318 21.6617 23.3015C22.901 23.3879 24.1497 23.3729 25.3837 23.2229C25.9468 23.1386 26.5167 23.0538 27.0547 22.8604C27.2214 22.9589 27.4257 23.0429 27.5124 23.2285C27.5635 23.4045 27.3871 23.533 27.2538 23.6088L27.2537 23.6088ZM27.2967 25.6475C26.9971 25.8271 26.6546 25.9151 26.3197 26.0038C25.1416 26.2742 23.9266 26.3407 22.7214 26.3144C22.0071 26.3002 21.2932 26.2402 20.5878 26.1299C20.0668 26.031 19.5301 25.939 19.0586 25.6848C18.9301 25.5997 18.7529 25.4894 18.7699 25.3139C18.8425 25.0978 19.0752 25.0033 19.2629 24.9089C19.813 25.0909 20.3891 25.1825 20.9619 25.2611C22.3468 25.4371 23.7519 25.4278 25.1387 25.279C25.5717 25.2365 25.9994 25.1566 26.4259 25.073C26.6242 25.0276 26.822 24.9774 27.0101 24.8983C27.1957 25.0114 27.4244 25.1055 27.5176 25.3179C27.5387 25.465 27.4086 25.5761 27.2967 25.6475ZM18.7647 17.1665C18.8539 16.9586 19.0756 16.8556 19.2702 16.7676C19.9517 16.4988 20.6834 16.3943 21.4075 16.3127C21.7335 16.2746 22.0606 16.2544 22.3882 16.2365C23.3688 16.1834 24.3543 16.2341 25.3269 16.3675C25.7607 16.423 26.1912 16.5081 26.6104 16.6342C26.8739 16.7161 27.1439 16.8032 27.3673 16.9715C27.45 17.0375 27.5347 17.136 27.5153 17.2504C27.435 17.4576 27.214 17.5524 27.0272 17.6408C26.4179 17.897 25.7571 17.9882 25.1068 18.0754C24.3252 18.1756 23.5355 18.184 22.7482 18.1763C21.7262 18.1577 20.6969 18.0673 19.7081 17.7957C19.4312 17.7117 19.1442 17.6242 18.9143 17.4418C18.8349 17.3728 18.7403 17.282 18.7647 17.1665ZM9.16681 23.1677C9.37277 22.9544 9.66584 22.8604 9.93909 22.7668C10.9562 22.4639 12.0233 22.3808 13.0789 22.3391C13.9805 22.322 14.885 22.367 15.776 22.5089C16.3392 22.5929 16.9043 22.7104 17.426 22.9439C17.5845 23.0201 17.7617 23.1146 17.8233 23.2914C17.8444 23.3927 17.7702 23.4839 17.7001 23.548C17.5014 23.7093 17.2577 23.8013 17.0161 23.8772C16.2362 24.1261 15.4169 24.2116 14.6044 24.274C13.9822 24.3036 13.3591 24.3243 12.7368 24.2915C11.8141 24.2623 10.8865 24.1634 9.99548 23.9136C9.71127 23.8216 9.4052 23.732 9.18833 23.5164C9.08939 23.428 9.06266 23.2618 9.16686 23.1677L9.16681 23.1677ZM9.12713 25.2773C9.2305 25.1148 9.41538 25.0345 9.57995 24.949C10.2841 25.1849 11.0248 25.2903 11.7614 25.3657C13.1118 25.4947 14.476 25.4541 15.8203 25.2786C16.3278 25.2097 16.8325 25.1116 17.3214 24.9583C17.5059 25.041 17.7078 25.1383 17.814 25.3191C17.8792 25.4983 17.694 25.641 17.5537 25.7139C16.9647 26.0107 16.3047 26.1197 15.6585 26.2158C14.2011 26.4039 12.7202 26.4015 11.2628 26.2158C10.8087 26.1558 10.3571 26.0687 9.91762 25.9381C9.66949 25.8566 9.41737 25.763 9.21346 25.5951C9.12104 25.5226 9.05779 25.386 9.12713 25.2773ZM17.6214 27.6417C17.2784 27.8391 16.8925 27.9457 16.5106 28.0378C15.7781 28.1995 15.0289 28.2826 14.2797 28.3074C13.7803 28.3378 13.2784 28.3365 12.7789 28.3094C12.1424 28.294 11.5064 28.234 10.878 28.1302C10.4479 28.0524 10.0177 27.9604 9.61033 27.7994C9.43923 27.7277 9.26453 27.6397 9.1486 27.4905C9.09669 27.4276 9.08292 27.3312 9.12669 27.2615C9.2025 27.1151 9.36181 27.0466 9.49562 26.9651C10.0571 27.165 10.6486 27.2656 11.2372 27.3491C12.0423 27.4581 12.8564 27.4889 13.668 27.4897C14.3313 27.4569 14.9949 27.4281 15.6536 27.3389C15.8056 27.3361 15.9447 27.2659 16.0979 27.268C15.9621 27.3418 15.8073 27.3243 15.6597 27.3503C15.0954 27.4354 14.5262 27.4869 13.9555 27.4942C13.7519 27.4816 13.5488 27.6596 13.5849 27.8716C13.5987 28.0528 13.7808 28.1765 13.9542 28.1631C15.02 28.1233 16.0943 28.0216 17.1188 27.7102C17.3296 27.6612 17.4131 27.379 17.2903 27.2108C17.2509 27.1471 17.1837 27.1111 17.1241 27.0709C17.2302 27.0466 17.3328 27.008 17.4342 26.9687C17.5809 27.0595 17.7646 27.1358 17.8339 27.3064C17.872 27.456 17.7325 27.5695 17.6214 27.6417ZM18.2709 26.9026C18.2097 26.8292 18.1416 26.7628 18.0694 26.7011C18.1663 26.6346 18.2514 26.554 18.3272 26.4643C18.4063 26.5243 18.485 26.5847 18.562 26.6484C18.4513 26.7165 18.3609 26.8101 18.2709 26.9025V26.9026ZM18.2753 24.9458C18.1902 24.8452 18.0884 24.7617 17.9802 24.6887C18.1031 24.6004 18.2251 24.5087 18.3264 24.3952C18.416 24.4897 18.5283 24.5561 18.6374 24.6255C18.5064 24.7199 18.3815 24.8233 18.2753 24.9458ZM18.806 19.1409C18.9207 18.9876 19.104 18.9126 19.2686 18.8263C19.9833 19.0484 20.7252 19.1733 21.4703 19.2369C22.5495 19.335 23.638 19.3346 24.718 19.2434C25.5016 19.1639 26.2958 19.0788 27.0466 18.8286C27.2197 18.9198 27.4135 19.0131 27.5128 19.1919C27.5529 19.3273 27.4496 19.4574 27.3454 19.532C27.0932 19.6994 26.8033 19.7987 26.5127 19.8758C25.7493 20.0866 24.958 20.1685 24.1698 20.2195C23.4551 20.2593 22.7388 20.2504 22.024 20.2154C21.1463 20.151 20.2573 20.0598 19.4214 19.7679C19.1952 19.6771 18.9434 19.5875 18.7954 19.3816C18.7379 19.3118 18.7492 19.2069 18.806 19.1407L18.806 19.1409ZM18.8222 21.1079C18.9195 21.0017 19.044 20.9141 19.1814 20.8691C19.9035 21.1079 20.6583 21.2392 21.4156 21.3012C22.1189 21.3746 22.8264 21.3871 23.533 21.3722C23.8549 21.3762 24.1748 21.3409 24.4963 21.3284C24.6645 21.2874 24.8372 21.2773 25.0099 21.2789C24.894 21.304 24.7792 21.3413 24.6589 21.3256C24.2754 21.3531 23.8914 21.3969 23.5063 21.4018C23.4188 21.4739 23.3032 21.5433 23.2999 21.6717C23.2553 21.8903 23.4666 22.0921 23.6822 22.0585C24.6365 22.0127 25.5953 21.9211 26.5249 21.6928C26.6971 21.6377 26.9347 21.6211 27.0061 21.4241C27.0783 21.255 26.9968 21.071 26.8443 20.9814C26.9526 20.9473 27.0584 20.9047 27.165 20.8646C27.2903 20.9594 27.4387 21.0394 27.5161 21.1825C27.5538 21.3669 27.3839 21.5007 27.2396 21.5777C26.8143 21.8047 26.3368 21.9098 25.8678 22.0042C24.4922 22.243 23.0855 22.2649 21.6954 22.1668C20.9288 22.0922 20.1517 22.0127 19.4211 21.7549C19.1945 21.6641 18.9431 21.5729 18.7964 21.3661C18.7344 21.2863 18.7567 21.1768 18.8223 21.1079L18.8222 21.1079ZM27.3559 27.5768C27.0802 27.7641 26.7547 27.8594 26.4372 27.9494C25.2611 28.2405 24.0433 28.3126 22.8357 28.2976C21.7467 28.253 20.6445 28.187 19.5945 27.8736C19.3334 27.7917 19.0578 27.7037 18.8599 27.5055C18.8024 27.4426 18.7351 27.3535 18.7744 27.2651C18.8461 27.0916 19.0241 27.0008 19.1806 26.9165C19.5353 27.0705 19.9225 27.1298 20.2987 27.2116C21.4541 27.4106 22.6321 27.4808 23.8034 27.422C24.3288 27.4253 24.8505 27.364 25.3714 27.3024C25.5668 27.2882 25.7542 27.2226 25.952 27.2395C25.1999 27.3413 24.4459 27.4661 23.6846 27.4495C23.4815 27.4362 23.2768 27.6207 23.3039 27.8302C23.3125 28.0187 23.4989 28.161 23.6838 28.1314C24.7273 28.0864 25.7797 27.9927 26.7842 27.692C26.9399 27.6579 27.0433 27.4982 27.0255 27.3429C27.023 27.2002 26.9095 27.1066 26.7964 27.0421C26.9006 27.0104 27.0024 26.9715 27.1004 26.9237C27.2464 27.0024 27.398 27.0891 27.4945 27.2282C27.5804 27.3579 27.4588 27.5015 27.3558 27.5768H27.3559Z" fill="#5A73A0"/>
<path d="M13.9122 26.1905C14.9983 26.1508 16.0949 26.0498 17.1404 25.7393C17.2969 25.6939 17.3682 25.5106 17.3391 25.361C17.3087 25.1766 17.0942 25.0461 16.9175 25.1166C15.919 25.4146 14.8714 25.4957 13.8353 25.537C13.723 25.5609 13.6297 25.6545 13.6013 25.7652C13.5398 25.9663 13.6933 26.2014 13.9122 26.1905Z" fill="#5A73A0"/>
<path d="M26.6435 25.0758C25.7621 25.3429 24.8394 25.4252 23.9249 25.4885C23.7388 25.5055 23.5048 25.4427 23.3743 25.6174C23.189 25.8161 23.369 26.1878 23.641 26.1578C24.6934 26.1225 25.7503 26.0062 26.7679 25.7277C26.9207 25.7009 27.0395 25.5534 27.0262 25.3977C27.0351 25.2044 26.8365 25.019 26.6435 25.0758Z" fill="#5A73A0"/>
<path d="M23.5983 20.0785C24.6632 20.0554 25.7356 19.9455 26.7612 19.648C26.9027 19.62 27.017 19.4996 27.0226 19.3529C27.0603 19.1498 26.8495 18.9345 26.646 18.9953C26.3205 19.0995 25.986 19.1709 25.6496 19.2276C24.9714 19.3338 24.2866 19.4048 23.6003 19.4178C23.4539 19.4186 23.3262 19.5443 23.3019 19.6846C23.2613 19.8686 23.4028 20.0786 23.5982 20.0786L23.5983 20.0785Z" fill="#5A73A0"/>
<path d="M26.6455 23.0145C25.6568 23.3007 24.6242 23.4012 23.5985 23.43C23.4214 23.4324 23.284 23.6043 23.2937 23.7766C23.2937 23.9558 23.4615 24.1143 23.6428 24.0945C24.6939 24.0547 25.7545 23.9655 26.7688 23.6704C26.9245 23.6408 27.0445 23.4941 27.0271 23.3335C27.036 23.141 26.8324 22.9618 26.6455 23.0145Z" fill="#5A73A0"/>
<path d="M13.9132 24.1364C14.4297 24.1344 14.945 24.0845 15.4578 24.027C16.0063 23.9588 16.554 23.8644 17.0831 23.7022C17.2306 23.667 17.3506 23.5295 17.3377 23.3739C17.3434 23.1558 17.0944 22.9835 16.8937 23.0771C15.9078 23.3666 14.8732 23.4379 13.8516 23.4809C13.7256 23.502 13.6222 23.6057 13.5942 23.7298C13.5371 23.9248 13.7069 24.1506 13.9132 24.1364Z" fill="#5A73A0"/>
<path d="M7.9669 27.252C7.85828 27.1725 7.72242 27.2017 7.6061 27.2455C6.71866 27.4912 5.79559 27.6031 4.87572 27.6128C4.65886 27.6196 4.51735 27.8791 4.59637 28.0729C4.64098 28.2014 4.7796 28.2833 4.91379 28.2716C5.9269 28.2481 6.94361 28.1289 7.91904 27.8455C8.17077 27.7656 8.18941 27.3793 7.9669 27.252Z" fill="#5A73A0"/>
<path d="M23.6449 18.0132C24.6876 17.9869 25.7368 17.8787 26.7446 17.5977C26.9068 17.5653 27.0422 17.4181 27.0264 17.247C27.0357 17.0435 26.8103 16.8676 26.6173 16.9495C25.6281 17.2398 24.5907 17.3204 23.5651 17.3561C23.3936 17.3809 23.272 17.5641 23.3012 17.7323C23.3174 17.8998 23.4755 18.0339 23.6449 18.0132Z" fill="#5A73A0"/>
</svg>
