<svg width="180" height="165" viewBox="0 0 180 165" fill="none" xmlns="http://www.w3.org/2000/svg">
<path d="M6.1989 36H0.919837L10.5315 8.69818H16.637L26.262 36H20.9829L13.6909 14.2972H13.4776L6.1989 36ZM6.3722 25.2952H20.7696V29.2679H6.3722V25.2952ZM37.9533 36.3999C35.9092 36.3999 34.1539 35.9511 32.6875 35.0535C31.23 34.1559 30.1058 32.9161 29.3148 31.3342C28.5327 29.7433 28.1417 27.9125 28.1417 25.8418C28.1417 23.7622 28.5416 21.9269 29.3415 20.3361C30.1413 18.7364 31.27 17.4922 32.7275 16.6034C34.1939 15.7058 35.927 15.257 37.9266 15.257C39.5885 15.257 41.0594 15.5636 42.3392 16.1769C43.6278 16.7812 44.6543 17.6388 45.4186 18.7497C46.1829 19.8518 46.6184 21.1404 46.725 22.6157H42.1125C41.9259 21.6292 41.4815 20.8071 40.7794 20.1495C40.0862 19.4829 39.1575 19.1497 37.9933 19.1497C37.0068 19.1497 36.1402 19.4163 35.3937 19.9495C34.6472 20.4739 34.0651 21.2293 33.6474 22.2158C33.2385 23.2023 33.0341 24.3843 33.0341 25.7618C33.0341 27.1571 33.2385 28.3569 33.6474 29.3612C34.0562 30.3566 34.6294 31.1253 35.3671 31.6674C36.1136 32.2007 36.989 32.4673 37.9933 32.4673C38.7042 32.4673 39.3397 32.334 39.8996 32.0674C40.4684 31.7919 40.9438 31.3964 41.326 30.8809C41.7082 30.3654 41.9703 29.7389 42.1125 29.0012H46.725C46.6095 30.4499 46.1829 31.7341 45.4453 32.8539C44.7076 33.9648 43.7034 34.8358 42.4325 35.4668C41.1616 36.0889 39.6685 36.3999 37.9533 36.3999ZM60.9125 15.5236V19.2563H49.1413V15.5236H60.9125ZM52.0474 10.6178H56.8732V29.8411C56.8732 30.4899 56.971 30.9876 57.1665 31.3342C57.3709 31.6719 57.6375 31.9029 57.9664 32.0274C58.2952 32.1518 58.6596 32.214 59.0595 32.214C59.3617 32.214 59.6372 32.1918 59.886 32.1474C60.1438 32.1029 60.3393 32.0629 60.4726 32.0274L61.2858 35.8C61.0281 35.8889 60.6592 35.9867 60.1793 36.0933C59.7083 36.2 59.1306 36.2622 58.4463 36.28C57.2376 36.3155 56.1489 36.1333 55.1802 35.7334C54.2115 35.3246 53.4427 34.6936 52.8739 33.8404C52.314 32.9872 52.0385 31.9207 52.0474 30.641V10.6178ZM64.9485 36V15.5236H69.7743V36H64.9485ZM67.3747 12.6175C66.6104 12.6175 65.9527 12.3642 65.4017 11.8576C64.8507 11.3422 64.5752 10.7245 64.5752 10.0046C64.5752 9.27586 64.8507 8.65819 65.4017 8.15161C65.9527 7.63615 66.6104 7.37841 67.3747 7.37841C68.1479 7.37841 68.8056 7.63615 69.3477 8.15161C69.8987 8.65819 70.1742 9.27586 70.1742 10.0046C70.1742 10.7245 69.8987 11.3422 69.3477 11.8576C68.8056 12.3642 68.1479 12.6175 67.3747 12.6175ZM101.672 36.4133C100.374 36.4133 99.2057 36.1822 98.1659 35.72C97.135 35.249 96.3173 34.5558 95.713 33.6404C95.1176 32.725 94.8198 31.5963 94.8198 30.2544C94.8198 29.099 95.0331 28.1436 95.4597 27.3882C95.8863 26.6328 96.4684 26.0284 97.2061 25.5752C97.9437 25.1219 98.7747 24.7798 99.699 24.5487C100.632 24.3087 101.596 24.1354 102.592 24.0288C103.792 23.9044 104.765 23.7933 105.511 23.6955C106.258 23.5889 106.8 23.4289 107.138 23.2156C107.484 22.9934 107.658 22.6513 107.658 22.1891V22.1091C107.658 21.1049 107.36 20.3272 106.764 19.7762C106.169 19.2252 105.311 18.9497 104.192 18.9497C103.009 18.9497 102.072 19.2074 101.379 19.7229C100.694 20.2384 100.232 20.8471 99.9922 21.5492L95.4864 20.9093C95.8419 19.6651 96.4284 18.6253 97.2461 17.7899C98.0637 16.9456 99.0635 16.3146 100.246 15.8969C101.428 15.4703 102.734 15.257 104.165 15.257C105.151 15.257 106.133 15.3726 107.111 15.6036C108.089 15.8347 108.982 16.2168 109.791 16.7501C110.599 17.2744 111.248 17.9899 111.737 18.8964C112.235 19.8029 112.483 20.936 112.483 22.2958V36H107.844V33.1872H107.684C107.391 33.756 106.978 34.2892 106.444 34.7869C105.92 35.2757 105.258 35.6712 104.458 35.9733C103.667 36.2666 102.738 36.4133 101.672 36.4133ZM102.925 32.8672C103.894 32.8672 104.734 32.6761 105.445 32.294C106.156 31.9029 106.702 31.3875 107.084 30.7476C107.475 30.1077 107.671 29.4101 107.671 28.6546V26.2417C107.52 26.3662 107.262 26.4817 106.898 26.5883C106.542 26.695 106.142 26.7883 105.698 26.8683C105.254 26.9483 104.814 27.0194 104.378 27.0816C103.943 27.1438 103.565 27.1971 103.245 27.2416C102.525 27.3393 101.881 27.4993 101.312 27.7215C100.743 27.9437 100.294 28.2547 99.9656 28.6546C99.6368 29.0457 99.4723 29.5523 99.4723 30.1744C99.4723 31.0631 99.7967 31.7341 100.446 32.1873C101.094 32.6406 101.921 32.8672 102.925 32.8672ZM127.561 15.5236V19.2563H115.789V15.5236H127.561ZM118.696 10.6178H123.521V29.8411C123.521 30.4899 123.619 30.9876 123.815 31.3342C124.019 31.6719 124.286 31.9029 124.615 32.0274C124.943 32.1518 125.308 32.214 125.708 32.214C126.01 32.214 126.285 32.1918 126.534 32.1474C126.792 32.1029 126.987 32.0629 127.121 32.0274L127.934 35.8C127.676 35.8889 127.307 35.9867 126.827 36.0933C126.356 36.2 125.779 36.2622 125.094 36.28C123.886 36.3155 122.797 36.1333 121.828 35.7334C120.86 35.3246 120.091 34.6936 119.522 33.8404C118.962 32.9872 118.687 31.9207 118.696 30.641V10.6178ZM140.442 36.3999C138.389 36.3999 136.616 35.9733 135.123 35.1202C133.638 34.2581 132.496 33.0405 131.697 31.4675C130.897 29.8855 130.497 28.0236 130.497 25.8818C130.497 23.7755 130.897 21.9269 131.697 20.3361C132.505 18.7364 133.634 17.4922 135.083 16.6034C136.531 15.7058 138.233 15.257 140.188 15.257C141.45 15.257 142.641 15.4614 143.761 15.8702C144.89 16.2702 145.885 16.8923 146.747 17.7366C147.618 18.5809 148.303 19.6562 148.8 20.9627C149.298 22.2602 149.547 23.8066 149.547 25.6018V27.0816H132.763V23.8288H144.921C144.912 22.9045 144.712 22.0825 144.321 21.3626C143.93 20.6338 143.383 20.0606 142.681 19.6429C141.988 19.2252 141.179 19.0163 140.255 19.0163C139.269 19.0163 138.402 19.2563 137.656 19.7362C136.909 20.2072 136.327 20.8294 135.909 21.6026C135.5 22.3669 135.292 23.2067 135.283 24.1221V26.9616C135.283 28.1525 135.5 29.1745 135.936 30.0277C136.371 30.872 136.98 31.5208 137.762 31.974C138.544 32.4184 139.46 32.6406 140.508 32.6406C141.21 32.6406 141.846 32.5428 142.415 32.3473C142.983 32.1429 143.477 31.8452 143.894 31.4541C144.312 31.0631 144.628 30.5787 144.841 30.0011L149.347 30.5076C149.062 31.6985 148.52 32.7384 147.72 33.6271C146.929 34.5069 145.916 35.1913 144.681 35.6801C143.446 36.16 142.033 36.3999 140.442 36.3999Z" fill="url(#paint0_radial_4026_11)" fill-opacity="0.1"/>
<path d="M93.0268 15.5236L85.7348 36H80.4024L73.1104 15.5236H78.2561L82.9619 30.7343H83.1752L87.8944 15.5236H93.0268Z" fill="#5D91BF" fill-opacity="0.1"/>
<g clip-path="url(#clip0_4026_11)">
<path d="M86.2665 32.2927C86.1595 31.2929 86.2208 30.3099 86.432 29.3846C86.7184 28.1399 87.2766 27.0076 88.0527 26.042C88.7596 25.1434 89.6565 24.4088 90.6896 23.8924L82.1479 28.1835C81.1148 28.6999 80.2179 29.4346 79.5109 30.3331C78.7385 31.2905 78.1767 32.431 77.8902 33.6757C77.6791 34.6011 77.6178 35.584 77.7247 36.5838L84.5772 100.465L93.119 96.1738L86.2665 32.2927Z" fill="#5A73A0"/>
<path d="M142.001 137.656L104.131 140.646C102.74 130.386 97.6257 120.914 89.8099 114.19L68.5304 95.8863C67.0235 94.5903 66.1654 92.8505 65.9711 91.0461C65.8801 90.2498 65.9241 89.4356 66.109 88.6554C66.3296 87.6656 66.7753 86.7182 67.4492 85.8931C69.1603 83.7391 71.8946 82.9577 74.3954 83.6509C75.3757 83.9251 76.3084 84.4133 77.1347 85.1382L93.8303 99.7807C93.9708 99.9028 94.1295 99.984 94.2949 100.029C94.5532 100.106 94.8313 100.074 95.0818 99.9512C95.4922 99.7336 95.7185 99.2958 95.6599 98.8181L93.8005 81.4796L88.5017 32.121C88.4131 31.3846 88.4646 30.6621 88.618 29.9953C88.8219 29.0863 89.2324 28.2604 89.8114 27.5594C90.8678 26.2097 92.5102 25.3591 94.4215 25.3653C94.9202 25.3639 95.4139 25.4388 95.8737 25.5672C97.1204 25.9219 98.2442 26.7021 99.0911 27.7502C99.9425 28.8102 100.517 30.138 100.664 31.5482L103.48 57.7249L104.722 69.2718L106.143 82.5676C106.199 83.0734 106.554 83.4784 107.006 83.6031C107.127 83.6379 107.259 83.6483 107.39 83.6387C107.995 83.5968 108.444 83.0333 108.379 82.3959L106.945 69.1046L105.731 57.7566C105.654 57.1037 105.701 56.4774 105.838 55.8914C106.026 55.083 106.388 54.3433 106.882 53.7219C107.706 52.6503 108.991 51.943 110.447 51.8326C111.083 51.7854 111.696 51.8552 112.281 52.0102C114.415 52.6071 116.089 54.5081 116.351 56.9217L116.89 61.9324L118.134 73.5192L119.411 85.4648C119.467 85.9706 119.822 86.3755 120.274 86.5002C120.395 86.535 120.527 86.5454 120.658 86.5358C121.275 86.4894 121.72 85.9341 121.655 85.2967L120.377 73.3511L119.13 61.7725C119.061 61.1232 119.1 60.4933 119.237 59.9072C119.421 59.1071 119.779 58.3755 120.278 57.7459C121.145 56.6644 122.394 55.9507 123.873 55.8314C124.493 55.7768 125.107 55.8466 125.679 56.0061C127.817 56.5948 129.52 58.5186 129.77 60.9367L130.401 66.7438L131.819 79.9397L132.796 89.0131C132.852 89.5189 133.207 89.9238 133.658 90.0485C133.776 90.0915 133.903 90.0901 134.039 90.0923C134.651 90.034 135.093 89.487 135.028 88.8495L134.045 79.7444L132.634 66.5321C132.557 65.8792 132.601 65.2611 132.737 64.675C132.925 63.8667 133.287 63.127 133.782 62.5056C134.649 61.4241 135.901 60.7022 137.377 60.591C138.006 60.5401 138.611 60.6062 139.183 60.7658C141.329 61.3581 143.029 63.2901 143.283 65.7L146.596 96.5451C147.024 100.544 146.786 104.548 145.898 108.387C145.472 110.226 144.9 112.039 144.186 113.778C144.157 113.844 144.136 113.912 144.106 113.978C143.312 115.896 142.675 117.876 142.215 119.897C141.271 124.015 141.017 128.315 141.48 132.605L142.001 137.656Z" fill="url(#paint1_radial_4026_11)"/>
<path d="M144.357 138.628L143.695 132.434C143.262 128.403 143.504 124.371 144.386 120.52C144.822 118.617 145.417 116.775 146.164 114.982C146.975 113.051 147.611 111.051 148.081 109.006C149.022 104.916 149.274 100.644 148.82 96.3778L145.506 65.5328C145.134 62.1275 142.732 59.3893 139.687 58.5394C138.864 58.3065 137.995 58.2197 137.115 58.2854C135.031 58.4466 133.24 59.4757 132.019 60.9965C132.019 60.9965 132.019 60.9965 132.023 60.9883L131.993 60.7295C131.624 57.3161 129.219 54.5861 126.173 53.7361C125.35 53.5033 124.489 53.4201 123.602 53.4821C121.514 53.6515 119.711 54.6851 118.494 56.2177C117.798 57.0918 117.284 58.1262 117.025 59.2656C116.831 60.1102 116.774 60.997 116.878 61.9169L118.113 73.5001L119.39 85.4456C119.446 85.9514 119.805 86.3482 120.253 86.4811C120.374 86.5159 120.506 86.5262 120.625 86.5211C121.246 86.4666 121.683 85.9077 121.618 85.2702L120.34 73.3247L119.097 61.7378C119.028 61.0886 119.067 60.4587 119.204 59.8726C119.388 59.0724 119.746 58.3408 120.244 57.7113C121.103 56.6261 122.352 55.9124 123.832 55.7931C124.46 55.7422 125.065 55.8083 125.638 55.9678C127.772 56.5647 129.479 58.4803 129.737 60.9021L130.367 66.7092L131.785 79.9051L132.763 88.9785C132.81 89.4806 133.177 89.8811 133.625 90.0139C133.746 90.0488 133.878 90.0591 134.01 90.0495C134.63 89.9949 135.067 89.436 135.002 88.7986L134.024 79.7252L132.61 66.5211C132.541 65.8718 132.584 65.2538 132.713 64.6641C132.901 63.8557 133.259 63.1241 133.745 62.4991C134.613 61.4176 135.862 60.7039 137.341 60.5845C137.969 60.5336 138.575 60.5997 139.147 60.7593C141.281 61.3561 142.984 63.2799 143.246 65.6935L146.56 96.5386C146.988 100.538 146.749 104.541 145.862 108.381C145.422 110.292 144.822 112.17 144.063 113.988C143.264 115.894 142.635 117.878 142.176 119.898C141.232 124.016 140.981 128.309 141.432 132.603L141.976 137.645L104.099 140.632C102.708 130.371 97.5976 120.911 89.7774 114.175L68.4943 95.8798C66.9873 94.5838 66.1211 92.8403 65.935 91.0396C65.844 90.2433 65.8879 89.4291 66.0728 88.6489C66.3016 87.6628 66.7472 86.7154 67.4049 85.8829C69.116 83.7289 71.8585 82.9513 74.3593 83.6445C75.3314 83.9149 76.2641 84.4032 77.0905 85.1281L93.8303 99.7807C93.9708 99.9027 94.1214 99.9803 94.2831 100.033C94.5451 100.102 94.8276 100.082 95.0737 99.9475C95.4841 99.7299 95.7067 99.3002 95.6518 98.8144L88.4936 32.1173C88.4086 31.3727 88.4528 30.6666 88.6099 29.9916C88.8219 29.0862 89.2243 28.2567 89.8106 27.5394C90.8596 26.206 92.5021 25.3554 94.4134 25.3616C94.9165 25.372 95.4057 25.4351 95.8656 25.5635C97.116 25.9101 98.2397 26.6903 99.083 27.7465C99.9344 28.8065 100.505 30.1225 100.656 31.5445L103.502 58L104.71 69.2763L106.135 82.564C106.191 83.0697 106.546 83.4747 106.998 83.5994C107.119 83.6342 107.251 83.6446 107.382 83.635C107.999 83.5886 108.444 83.0333 108.379 82.3959L106.945 69.1046L105.723 57.7529C105.654 57.1036 105.693 56.4737 105.83 55.8877C106.017 55.0793 106.376 54.3477 106.882 53.7219C107.702 52.6584 108.979 51.9475 110.447 51.8326C111.083 51.7853 111.696 51.8551 112.281 52.0102C114.423 52.6107 116.089 54.508 116.351 56.9217L116.89 61.9323C116.787 61.0125 116.847 60.1176 117.038 59.2811C117.297 58.1416 117.811 57.1073 118.507 56.2332C117.976 53.0708 115.672 50.5725 112.788 49.7757C111.953 49.5473 111.084 49.4605 110.193 49.5307C108.149 49.6902 106.336 50.6802 105.127 52.2164L102.895 31.3646C102.698 29.4804 101.938 27.7163 100.798 26.3006C99.6654 24.8886 98.1434 23.8214 96.3844 23.3245C95.7349 23.1402 95.0486 23.0376 94.3508 23.0474C91.777 23.0376 89.5082 24.1951 88.0524 26.0421C87.2799 26.9995 86.7181 28.1399 86.4317 29.3846C86.2205 30.31 86.1593 31.293 86.2662 32.2927L93.1187 96.1739L78.531 83.4018C77.4283 82.4447 76.1898 81.7895 74.8951 81.4327C71.5876 80.514 67.953 81.5379 65.671 84.3966C64.7919 85.4826 64.2067 86.7401 63.9035 88.0655C63.6609 89.1043 63.6072 90.179 63.7165 91.2387C63.974 93.6405 65.138 95.9595 67.1158 97.6634L88.3989 115.959C96.0454 122.538 100.948 131.895 102.033 141.988C102.081 142.491 102.436 142.896 102.887 143.02C103.008 143.055 103.141 143.065 103.272 143.056L143.369 139.89C143.663 139.866 143.933 139.722 144.115 139.49C144.305 139.242 144.393 138.938 144.357 138.628Z" fill="#87B1D3"/>
<path d="M143.372 139.882L103.275 143.048L94.7333 147.339L134.83 144.173C134.962 144.164 135.096 144.126 135.221 144.065L143.763 139.774C143.641 139.827 143.507 139.865 143.372 139.882Z" fill="#8AB3D2"/>
<path d="M102.891 143.012C102.439 142.887 102.084 142.482 102.037 141.98C100.952 131.887 96.0491 122.53 88.4026 115.951L67.1194 97.6552C65.1498 95.9549 63.9777 93.6323 63.7201 91.2304C63.6027 90.1671 63.6645 89.0961 63.9071 88.0573C64.2067 86.74 64.8 85.4862 65.6747 84.3884C66.2867 83.6139 67.0038 82.975 67.7861 82.4733C68.0469 82.3061 68.3121 82.1507 68.5863 82.0189L60.0445 86.31C58.9488 86.8571 57.9583 87.6478 57.1329 88.6795C56.2501 89.7737 55.6686 91.023 55.3654 92.3484C55.1228 93.3872 55.0691 94.4619 55.1784 95.5216C55.4359 97.9234 56.5999 100.242 58.5777 101.946L79.8608 120.242C87.5073 126.821 92.4098 136.178 93.495 146.271C93.5426 146.773 93.8975 147.178 94.3493 147.303C94.4703 147.338 94.6024 147.348 94.7337 147.339L103.275 143.048C103.136 143.054 103.016 143.039 102.891 143.012Z" fill="#5A73A0"/>
<path d="M144.175 113.783C126.474 96.8144 107.178 86.8889 93.7923 81.4759L88.5017 32.121C88.4131 31.3846 88.4646 30.6621 88.618 29.9953C88.8219 29.0863 89.2324 28.2604 89.8114 27.5594C90.8678 26.2097 92.5102 25.3591 94.4215 25.3653C94.9202 25.3639 95.4139 25.4388 95.8737 25.5672C97.1204 25.9219 98.2442 26.7021 99.0911 27.7502C99.9425 28.8102 100.517 30.138 100.664 31.5482L103.48 57.7249L104.722 69.2718L106.144 82.5676C106.199 83.0734 106.554 83.4784 107.006 83.6031C107.127 83.6379 107.259 83.6483 107.39 83.6387C107.995 83.5968 108.444 83.0333 108.379 82.3959L106.945 69.1046L105.731 57.7566C105.654 57.1037 105.701 56.4774 105.838 55.8914C106.026 55.083 106.388 54.3433 106.882 53.7219C107.706 52.6503 108.991 51.943 110.447 51.8326C111.083 51.7854 111.696 51.8552 112.281 52.0102C114.415 52.6071 116.089 54.5081 116.351 56.9217L116.89 61.9324L118.134 73.5192L119.411 85.4648C119.467 85.9706 119.822 86.3755 120.274 86.5002C120.395 86.5351 120.527 86.5454 120.658 86.5358C121.275 86.4894 121.72 85.9341 121.655 85.2967L120.377 73.3511L119.13 61.7725C119.061 61.1232 119.1 60.4933 119.237 59.9072C119.421 59.1071 119.779 58.3755 120.278 57.7459C121.145 56.6644 122.394 55.9507 123.873 55.8314C124.493 55.7768 125.107 55.8466 125.679 56.0061C127.817 56.5948 129.52 58.5186 129.77 60.9367L130.401 66.7438L131.819 79.9397L132.796 89.0131C132.852 89.5189 133.207 89.9238 133.658 90.0486C133.776 90.0915 133.903 90.0901 134.039 90.0923C134.651 90.034 135.093 89.487 135.028 88.8495L134.045 79.7444L132.634 66.5321C132.557 65.8792 132.601 65.2611 132.737 64.6751C132.925 63.8667 133.287 63.127 133.782 62.5056C134.649 61.4241 135.901 60.7022 137.377 60.591C138.006 60.5401 138.611 60.6062 139.183 60.7658C141.329 61.3581 143.029 63.2901 143.283 65.7L146.596 96.5451C147.024 100.544 146.786 104.548 145.898 108.387C145.46 110.231 144.892 112.035 144.175 113.783Z" fill="#5A73A0"/>
</g>
<defs>
<radialGradient id="paint0_radial_4026_11" cx="0" cy="0" r="1" gradientUnits="userSpaceOnUse" gradientTransform="translate(41.4673 19.5054) rotate(1.55191) scale(110.573 32.7355)">
<stop stop-color="#5D91BF"/>
<stop offset="1" stop-color="#2B4459" stop-opacity="0.05"/>
</radialGradient>
<radialGradient id="paint1_radial_4026_11" cx="0" cy="0" r="1" gradientUnits="userSpaceOnUse" gradientTransform="translate(72.3855 62.278) rotate(24.2189) scale(121.005 121.563)">
<stop stop-color="white"/>
<stop offset="0.2153" stop-color="#FBFBFB"/>
<stop offset="0.432" stop-color="#EFEFEF"/>
<stop offset="0.6495" stop-color="#DBDBDB"/>
<stop offset="0.8662" stop-color="#BFBFBF"/>
<stop offset="1" stop-color="#A9A9A9"/>
</radialGradient>
<clipPath id="clip0_4026_11">
<rect width="104" height="114" fill="white" transform="translate(84.7656 18) rotate(24.2189)"/>
</clipPath>
</defs>
</svg>
