<svg width="160" height="160" viewBox="0 0 160 160" fill="none" xmlns="http://www.w3.org/2000/svg">
<path d="M145.328 121.717H86.6084V133.988H145.328V121.717Z" fill="#E1EFFA"/>
<path d="M145.328 120.498H86.6084V132.769H145.328V120.498Z" fill="#CEE2F2"/>
<path d="M140.491 108.22H81.7754V120.498H140.491V108.22Z" fill="#E1EFFA"/>
<path d="M140.491 107.003H81.7754V119.264H140.491V107.003Z" fill="#E1EFFA"/>
<path d="M155.251 94.7305H96.5322V107.003H155.251V94.7305Z" fill="#E1EFFA"/>
<path d="M155.251 93.4958H96.5322V105.768H155.251V93.4958Z" fill="#F2F9FD"/>
<path d="M149.708 81.2312H90.9775V93.4974H149.708V81.2312Z" fill="#5A73A0"/>
<path d="M149.708 80.002H90.9775V92.2783H149.708V80.002Z" fill="#5A73A0"/>
<path d="M157.601 67.7302H98.8789V80.0027H157.601V67.7302Z" fill="#E1EFFA"/>
<path d="M157.601 66.5112H98.8789V78.7689H157.601V66.5112Z" fill="#F2F9FD"/>
<path d="M69.4436 121.717H10.7275V133.988H69.4436V121.717Z" fill="#E1EFFA"/>
<path d="M69.4436 120.498H10.7275V132.769H69.4436V120.498Z" fill="#F2F9FD"/>
<path d="M61.1211 108.22H2.40039V120.498H61.1211V108.22Z" fill="#CEE2F2"/>
<path d="M61.1211 107.003H2.40039V119.264H61.1211V107.003Z" fill="#E1EFFA"/>
<path d="M74.1978 94.7305H15.4717V107.003H74.1978V94.7305Z" fill="#E1EFFA"/>
<path d="M74.1978 93.4958H15.4717V105.768H74.1978V93.4958Z" fill="#F2F9FD"/>
<path d="M76.0296 81.2312H17.3035V93.4974H76.0296V81.2312Z" fill="#E1EFFA"/>
<path d="M76.0296 80.002H17.3035V92.2783H76.0296V80.002Z" fill="#5A73A0"/>
<path d="M70.7645 67.7302H12.0469V80.0027H70.7645V67.7302Z" fill="#CEE2F2"/>
<path d="M70.7645 66.5112H12.0469V78.7689H70.7645V66.5112Z" fill="#E1EFFA"/>
<path d="M72.7925 54.2363H14.0703V66.5095H72.7925V54.2363Z" fill="#CEE2F2"/>
<path d="M72.7925 53.0017H14.0703V65.278H72.7925V53.0017Z" fill="#E1EFFA"/>
<path d="M69.4436 40.7434H10.7275V53.0011H69.4436V40.7434Z" fill="#E1EFFA"/>
<path d="M69.4436 39.5081H10.7275V51.7805H69.4436V39.5081Z" fill="#F2F9FD"/>
<path d="M80.4094 27.2324H21.6848V39.5087H80.4094V27.2324Z" fill="#CEE2F2"/>
<path d="M80.4094 26.011H21.6848V38.2873H80.4094V26.011Z" fill="#5A73A0"/>
<path d="M139.33 133.985H86.6035V132.771H138.116L138.99 133.66L139.33 133.985Z" fill="#B7D4EE"/>
<path d="M138.116 132.771H86.6035V121.724H127.069L138.116 132.771Z" fill="#A6C8E6"/>
<path d="M127.069 121.724H86.6035V120.497H125.841L127.069 121.724Z" fill="#A6C8E6"/>
<path d="M125.841 120.497H81.7783V119.269H124.628L125.841 120.497Z" fill="#A6C8E6"/>
<path d="M124.628 119.269H81.7783V108.222H113.566L122.808 117.463L124.628 119.269Z" fill="#B6D4ED"/>
<path d="M113.566 108.222H81.7783V107.008H112.353L113.566 108.222Z" fill="#B6D4ED"/>
<path d="M112.353 107.008H96.5361V105.767H111.111L112.353 107.008Z" fill="#B6D4ED"/>
<path d="M111.111 105.767H96.5361V94.7334H100.078L111.111 105.767Z" fill="#CEE2F2"/>
<path d="M100.078 94.7335H96.5361V93.4919H98.8501L100.078 94.7335Z" fill="#CEE2F2"/>
<path d="M98.8508 93.4917H90.9775V92.2781H97.6372L98.8508 93.4917Z" fill="#B6D4ED"/>
<path d="M97.6372 92.2781H90.9775V85.6472L95.1679 89.8236L97.6372 92.2781Z" fill="#B6D4ED"/>
<path d="M69.4474 132.771V133.985H48.8484L47.6348 132.771H69.4474Z" fill="#E1EFFA"/>
<path d="M69.4475 121.724V132.772H47.6349L41.8079 126.959C40.609 125.731 39.4799 124.403 38.4781 122.992C38.1398 122.555 37.8712 122.118 37.6035 121.724H69.4474L69.4475 121.724Z" fill="#CDE2F3"/>
<path d="M69.4475 120.497V121.724H37.6035L37.5609 121.638C37.363 121.342 37.1092 120.933 36.8555 120.495H69.4475V120.497Z" fill="#B6D5F0"/>
<path d="M61.1229 119.269V120.497H36.8551C36.8272 120.44 36.7985 120.369 36.7565 120.314C36.5587 119.975 36.3755 119.622 36.1924 119.27C36.1916 119.269 61.1229 119.269 61.1229 119.269Z" fill="#CFE1F2"/>
<path d="M61.123 108.222V119.269H36.1916C34.4138 115.953 33.2568 112.313 32.8199 108.49C32.806 108.403 32.792 108.305 32.792 108.222H61.123Z" fill="#E1EFFA"/>
<path d="M74.202 105.767V107.008H32.665C32.6224 106.599 32.6084 106.205 32.6084 105.809V105.767H74.202Z" fill="#E1EFFA"/>
<path d="M74.2016 94.7335V105.765H32.608C32.594 105.427 32.5801 105.019 32.5801 104.622C32.5801 104.453 32.5801 104.269 32.594 104.1V103.917C32.5801 103.748 32.5801 103.564 32.5801 103.394C32.5801 100.446 32.989 97.5248 33.7938 94.7312H74.2024V94.7335H74.2016Z" fill="#CDE2F3"/>
<path d="M74.2016 93.4919V94.7351H33.7937C33.8364 94.5233 33.9062 94.2967 33.9768 94.0863C34.0195 93.8877 34.0893 93.6913 34.1599 93.4927H74.2015V93.4919H74.2016Z" fill="#CDE2F3"/>
<path d="M76.0359 92.2781V93.4902H34.1599C34.2305 93.2659 34.3151 93.0107 34.3997 92.7709C34.4703 92.6172 34.527 92.4481 34.5976 92.2773H76.036L76.0359 92.2781Z" fill="#B6D5F0"/>
<path d="M76.0361 81.231V92.2781H34.5977C34.7102 91.9817 34.8235 91.714 34.922 91.43C36.474 87.6361 38.7741 84.1651 41.6662 81.2302C41.6663 81.231 76.0361 81.231 76.0361 81.231Z" fill="#A6C7E6"/>
<path d="M76.0361 80.0034V81.2311H41.6663L41.6802 81.2171C42.0892 80.7942 42.5129 80.3984 42.9497 80.0034H76.0361Z" fill="#A6C7E6"/>
<path d="M70.759 78.7617V80.0033H42.9502C43.1194 79.8481 43.2746 79.7069 43.4438 79.5804C43.7542 79.2979 44.0506 79.0442 44.4029 78.7617H70.759Z" fill="#B6D4ED"/>
<path d="M70.7592 72.5538V78.7618H44.4031C44.601 78.6205 44.812 78.4514 45.0239 78.2683C45.7013 77.76 46.3361 77.3231 46.9709 76.9281C48.5795 75.8557 50.3713 74.9245 52.2477 74.1624C52.5154 74.0499 52.7839 73.9506 53.0664 73.8381C56.5933 72.5259 60.3181 71.8484 64.1135 71.8484H64.4518C65.016 71.8623 65.5382 71.8763 66.0604 71.905C66.1171 71.905 66.159 71.919 66.2017 71.919C66.9071 71.9756 67.6124 72.0463 68.3039 72.1169C68.4164 72.1448 68.5018 72.1448 68.6143 72.1735C69.3197 72.2574 70.0251 72.3986 70.7592 72.5538Z" fill="#B5D5F0"/>
<path d="M61.1233 107.008V108.222H32.7923C32.7496 107.884 32.7077 107.531 32.6798 107.178C32.665 107.122 32.665 107.065 32.665 107.008H61.1233Z" fill="#E1EFFA"/>
<path d="M93.4787 104.627C93.4787 120.859 80.3403 133.989 64.1187 133.989C47.9159 133.989 34.7588 120.859 34.7588 104.627C34.7588 88.4069 47.9159 75.2661 64.1187 75.2661C80.3403 75.2661 93.4787 88.4069 93.4787 104.627Z" fill="#E1EFFA"/>
<path d="M93.4787 103.391C93.4787 119.621 80.3403 132.768 64.1187 132.768C47.9159 132.768 34.7588 119.62 34.7588 103.391C34.7588 87.1861 47.9159 74.0422 64.1187 74.0422C80.3403 74.0423 93.4787 87.1862 93.4787 103.391Z" fill="#F2F9FD"/>
<path d="M64.1196 128.069C50.5186 128.069 39.4622 116.995 39.4622 103.391C39.4622 89.8074 50.5163 78.7292 64.1196 78.7292C77.7228 78.7292 88.7793 89.8074 88.7793 103.391C88.7793 116.996 77.7205 128.069 64.1196 128.069ZM64.1196 81.0914C51.8192 81.0914 41.8057 91.1049 41.8057 103.391C41.8057 115.706 51.8192 125.714 64.1196 125.714C76.4238 125.714 86.4342 115.706 86.4342 103.391C86.4342 91.1041 76.4238 81.0914 64.1196 81.0914Z" fill="#5A73A0"/>
<path d="M72.4609 103.125C71.2573 101.902 68.9968 100.886 65.6755 100.103V93.093C67.0297 93.6013 67.8538 94.5604 68.1758 95.9642L73.4131 95.369C73.0491 93.5842 72.2297 92.1463 70.9244 91.0684C69.6262 90.0076 67.874 89.3488 65.6755 89.1245V87.3591H62.6786V89.1245C60.2885 89.3294 58.3866 90.0937 56.9502 91.4246C55.5324 92.7593 54.81 94.4145 54.81 96.3754C54.81 98.3186 55.4347 99.9536 56.7065 101.326C57.9776 102.68 59.9557 103.689 62.6786 104.368V111.873C61.9298 111.571 61.2469 111.069 60.6385 110.369C60.0348 109.688 59.6072 108.851 59.3884 107.887L53.9805 108.401C54.3964 110.748 55.3501 112.579 56.8431 113.871C58.3401 115.163 60.2816 115.938 62.6787 116.182V119.445H65.6756V116.1C68.3776 115.758 70.4829 114.853 71.9961 113.368C73.5132 111.882 74.2705 110.066 74.2705 107.887C74.2697 105.957 73.6738 104.378 72.4609 103.125ZM62.6786 99.2552C61.7769 98.9223 61.0956 98.4707 60.6579 97.9321C60.2249 97.3928 59.9851 96.8062 59.9851 96.1597C59.9851 95.4784 60.2451 94.832 60.72 94.2577C61.2081 93.6866 61.8498 93.28 62.6786 93.0433V99.2552ZM68.2107 110.884C67.555 111.55 66.7123 111.965 65.6755 112.138V105.141C66.9257 105.443 67.8227 105.9 68.3721 106.476C68.9169 107.053 69.1893 107.738 69.1893 108.552C69.1869 109.436 68.8556 110.214 68.2107 110.884Z" fill="#5A73A0"/>
</svg>
