<svg width="128" height="140" viewBox="0 0 128 140" fill="none" xmlns="http://www.w3.org/2000/svg">
<path d="M5.34548 66.1717C5.34548 80.7569 10.6357 94.106 19.4028 104.406C21.5208 106.894 23.8414 109.204 26.3394 111.31C36.6101 119.972 49.8779 125.192 64.3655 125.192C78.8746 125.192 92.1616 119.956 102.439 111.27C105.41 108.76 108.129 105.961 110.554 102.917C118.586 92.8352 123.386 80.0642 123.386 66.1717C123.386 33.5756 96.9611 7.15161 64.3656 7.15161C31.7694 7.1516 5.34548 33.5755 5.34548 66.1717Z" fill="#5A73A0"/>
<path d="M26.3396 111.31C36.6103 119.972 49.8781 125.192 64.3657 125.192C78.8748 125.192 92.1618 119.956 102.439 111.27L79.8758 98.3872L78.667 89.2823C78.667 89.2823 81.4874 86.9454 82.5349 84.0452C83.5825 81.1443 84.3883 74.2957 84.3883 74.2957C84.3883 74.2957 87.2885 77.116 89.0613 66.3189C90.834 55.5225 86.5632 58.4234 86.5632 58.4234C86.5632 58.4234 88.2954 44.2825 85.9593 37.8774L84.9923 41.3824C84.9923 41.3824 85.7042 34.9499 81.9443 31.4583L81.4608 33.8218C81.4608 33.8218 79.9032 30.1158 78.6671 28.8265L78.1836 31.3511C78.1836 31.3511 76.4116 27.322 75.713 26.1939L74.9071 27.9667C74.9071 27.9667 72.1681 22.7031 72.1142 21.4677C72.0602 20.2317 71.5235 19.0503 71.5235 19.0503L69.2132 21.7893L68.9449 19.8561L64.4331 24.4219L64.8086 22.0044L60.458 25.8723L60.458 23.4549L53.6899 29.4172L53.6899 27.5372C53.6899 27.5372 48.1039 31.9418 46.9218 33.2311C45.7405 34.5204 45.5793 35.7557 45.5793 35.7557L45.3102 33.9829L43.8065 39.1933L43.1619 38.1192C43.1619 38.1192 41.7654 48.3781 42.3028 58.2083C42.3028 58.2083 38.3004 56.7312 39.4285 62.0488C40.5567 67.3664 41.5236 76.149 44.4246 74.0539C44.4246 74.0539 45.8743 86.3008 49.7422 88.7182L49.7422 98.3872L26.3396 111.31Z" fill="#D6E8F6"/>
</svg>
